<svg width="18" height="18" viewBox="0 0 18 18" fill="none" xmlns="http://www.w3.org/2000/svg">
    <path d="M8.43799 12.2027C8.43799 11.8922 8.68999 11.6357 9.00049 11.6357C9.31099 11.6357 9.56299 11.884 9.56299 12.1945V12.2027C9.56299 12.5132 9.31099 12.7652 9.00049 12.7652C8.68999 12.7652 8.43799 12.5132 8.43799 12.2027Z" fill="#F07171"/>
    <path d="M3.597 15.3135H14.4585C15.3188 15.2685 15.9803 14.5357 15.936 13.6755C15.9263 13.5015 15.8888 13.3297 15.8228 13.1692L10.365 3.61723C9.948 2.86348 8.99925 2.59048 8.2455 3.00823C7.989 3.14923 7.7775 3.36073 7.63575 3.61723L2.178 13.1692C1.854 13.9672 2.238 14.8762 3.03525 15.201C3.19725 15.2662 3.36825 15.3037 3.54225 15.3135" stroke="#F07171" stroke-width="1.5" stroke-linecap="round" stroke-linejoin="round"/>
    <path d="M8.99268 10.0467V7.72168" stroke="#F07171" stroke-width="1.5" stroke-linecap="round" stroke-linejoin="round"/>
</svg>
