<svg width="19" height="19" viewBox="0 0 19 19" fill="none" xmlns="http://www.w3.org/2000/svg">
    <g clip-path="url(#clip0_335_22621)">
        <path d="M16.8036 4.1798L6.83577 14.1469C6.76875 14.2142 6.68911 14.2676 6.60141 14.304C6.51371 14.3404 6.41968 14.3592 6.32472 14.3592C6.22976 14.3592 6.13573 14.3404 6.04803 14.304C5.96033 14.2676 5.88069 14.2142 5.81367 14.1469L1.95898 10.2886C1.89197 10.2213 1.81232 10.1679 1.72462 10.1315C1.63692 10.0951 1.5429 10.0763 1.44793 10.0763C1.35297 10.0763 1.25894 10.0951 1.17124 10.1315C1.08354 10.1679 1.0039 10.2213 0.936884 10.2886C0.869602 10.3556 0.816216 10.4353 0.779788 10.5229C0.743361 10.6106 0.724609 10.7047 0.724609 10.7996C0.724609 10.8946 0.743361 10.9886 0.779788 11.0763C0.816216 11.164 0.869602 11.2437 0.936884 11.3107L4.79302 15.1661C5.1998 15.5721 5.75106 15.8002 6.3258 15.8002C6.90055 15.8002 7.45181 15.5721 7.85859 15.1661L17.8257 5.20118C17.8928 5.13418 17.9461 5.05458 17.9825 4.96695C18.0189 4.87931 18.0376 4.78537 18.0376 4.69049C18.0376 4.59561 18.0189 4.50167 17.9825 4.41404C17.9461 4.3264 17.8928 4.24681 17.8257 4.1798C17.7587 4.11252 17.679 4.05914 17.5913 4.02271C17.5036 3.98628 17.4096 3.96753 17.3146 3.96753C17.2197 3.96753 17.1256 3.98628 17.0379 4.02271C16.9502 4.05914 16.8706 4.11252 16.8036 4.1798Z" fill="white"/>
    </g>
    <defs>
        <clipPath id="clip0_335_22621">
            <rect width="17.3115" height="17.3115" fill="white" transform="translate(0.705078 0.983643)"/>
        </clipPath>
    </defs>
</svg>
