<svg width="36" height="36" viewBox="0 0 36 36" fill="none" xmlns="http://www.w3.org/2000/svg">
<path opacity="0.997" fill-rule="evenodd" clip-rule="evenodd" d="M24.6446 2.84768C24.4528 3.14561 24.2185 3.41515 23.9415 3.65628C20.2279 7.10299 16.5951 10.5366 13.0431 13.9571C11.9603 13.8191 10.8822 13.6551 9.80869 13.4649C9.78528 13.5 9.76179 13.5352 9.73838 13.5703C9.94404 14.4282 10.155 15.2837 10.3712 16.1367C10.0582 16.154 9.84729 16.3298 9.73838 16.6641C9.76257 16.7601 9.80946 16.8421 9.879 16.9102C7.57332 19.0868 5.27646 21.2782 2.98838 23.4844C2.83128 23.6074 2.66722 23.7129 2.49619 23.8008C1.25524 20.377 1.11462 16.9083 2.07432 13.3946C5.88258 9.78556 9.70287 6.1879 13.5353 2.60159C13.7889 2.38378 13.9998 2.13769 14.1681 1.86331C17.7764 1.05466 21.2686 1.38279 24.6446 2.84768Z" fill="#FDC347"/>
<path opacity="0.986" fill-rule="evenodd" clip-rule="evenodd" d="M14.168 1.86328C13.9997 2.13766 13.7888 2.38376 13.5352 2.60156C9.70277 6.18787 5.88248 9.78553 2.07422 13.3945C3.67298 8.22136 6.97767 4.60025 11.9883 2.53125C12.6991 2.25399 13.4256 2.03134 14.168 1.86328Z" fill="#FEC64B"/>
<path opacity="0.998" fill-rule="evenodd" clip-rule="evenodd" d="M24.6445 2.84766C27.0705 3.93728 29.133 5.50759 30.832 7.55859C30.7126 7.54734 30.5954 7.55902 30.4805 7.59375C29.3086 8.67185 28.1367 9.75002 26.9648 10.8281C26.5524 11.217 26.1657 11.6272 25.8047 12.0586C25.7813 12.0352 25.7578 12.0117 25.7344 11.9883C25.4241 12.2631 25.1545 12.5677 24.9258 12.9023C23.7459 13.014 22.574 13.178 21.4102 13.3945C21.2535 13.344 21.1246 13.2502 21.0234 13.1133C20.5095 12.4121 19.947 11.7558 19.3359 11.1445C19.3189 11.2597 19.2604 11.3652 19.1602 11.4609C19.0957 11.4872 19.0371 11.5224 18.9844 11.5664C18.9372 11.5135 18.8786 11.49 18.8086 11.4961C18.5553 11.1486 18.274 10.8205 17.9648 10.5117C16.9693 11.7068 15.9849 12.9139 15.0117 14.1328C14.3494 14.1504 13.6931 14.0918 13.043 13.957C16.595 10.5365 20.2279 7.10297 23.9414 3.65625C24.2184 3.41512 24.4527 3.14558 24.6445 2.84766Z" fill="#FBBE42"/>
<path fill-rule="evenodd" clip-rule="evenodd" d="M30.832 7.55858C31.4773 8.34496 32.0398 9.18871 32.5195 10.0898C30.5057 11.9394 28.4901 13.7909 26.4727 15.6445C26.7015 14.7113 26.9125 13.7738 27.1055 12.832C27.1956 12.7471 27.1956 12.6533 27.1055 12.5508C26.3829 12.6907 25.6564 12.8079 24.9258 12.9023C25.1545 12.5677 25.4241 12.2631 25.7344 11.9883C25.7578 12.0117 25.7813 12.0352 25.8047 12.0586C26.1657 11.6272 26.5524 11.217 26.9648 10.8281C28.1367 9.75001 29.3086 8.67184 30.4805 7.59374C30.5954 7.559 30.7126 7.54733 30.832 7.55858Z" fill="#FABB3E"/>
<path opacity="0.999" fill-rule="evenodd" clip-rule="evenodd" d="M32.5195 10.0898C33.1897 11.2558 33.6819 12.498 33.9961 13.8164C33.3892 14.2938 32.815 14.8563 32.2734 15.5039C32.25 15.4805 32.2265 15.457 32.2031 15.4336C31.8258 15.7874 31.4742 16.1624 31.1484 16.5586C31.125 16.5352 31.1015 16.5117 31.0781 16.4883C30.6328 16.9805 30.1875 17.4727 29.7422 17.9648C29.7188 17.9179 29.6953 17.8711 29.6719 17.8242C29.3672 18.1758 29.0625 18.5273 28.7578 18.8789C28.7344 18.8555 28.7109 18.832 28.6875 18.8086C28.357 19.1156 28.0523 19.4437 27.7734 19.793C27.75 19.7696 27.7265 19.7461 27.7031 19.7227C27.3492 20.0531 27.0211 20.4046 26.7188 20.7773C26.6953 20.7539 26.6719 20.7304 26.6484 20.707C26.3179 21.014 26.0132 21.3422 25.7344 21.6914C25.711 21.668 25.6875 21.6445 25.6641 21.6211C25.3555 21.9426 25.0625 22.2238 24.7852 22.4648C25.2927 20.1768 25.8552 17.9034 26.4727 15.6445C28.4901 13.791 30.5057 11.9394 32.5195 10.0898Z" fill="#FAB83C"/>
<path fill-rule="evenodd" clip-rule="evenodd" d="M18.8086 11.4961C19.5026 12.3793 20.2058 13.2582 20.918 14.1328C22.6197 13.9634 24.319 13.7408 26.0156 13.4648C26.1124 13.4778 26.1709 13.5247 26.1914 13.6055C26.0715 14.1327 25.9308 14.6483 25.7695 15.1523C25.7477 15.0653 25.7126 15.0653 25.6641 15.1523C25.6309 15.2751 25.584 15.3923 25.5234 15.5039C25.4765 15.457 25.4297 15.4102 25.3828 15.3633C25.3309 15.4843 25.2722 15.6014 25.207 15.7148C25.1601 15.6914 25.1133 15.6679 25.0664 15.6445C24.9832 15.7532 24.9128 15.8704 24.8555 15.9961C24.8068 15.9592 24.7717 15.9123 24.75 15.8555C24.6667 15.9874 24.5964 16.1281 24.5391 16.2773C24.4922 16.2304 24.4453 16.1836 24.3984 16.1367C24.3281 16.2773 24.2578 16.418 24.1875 16.5586C24.158 16.4762 24.1112 16.4059 24.0469 16.3477C24.0087 16.4975 23.9501 16.6381 23.8711 16.7695C23.8242 16.7461 23.7774 16.7226 23.7305 16.6992C23.6653 16.8126 23.6066 16.9298 23.5547 17.0508C23.5078 17.0039 23.461 16.9571 23.4141 16.9102C23.3438 17.0508 23.2734 17.1914 23.2031 17.332C23.1388 17.2738 23.092 17.2035 23.0625 17.1211C23.0243 17.2709 22.9657 17.4116 22.8867 17.543C22.8398 17.5196 22.793 17.4961 22.7461 17.4727C22.6887 17.5983 22.6184 17.7155 22.5352 17.8242C22.4865 17.7873 22.4513 17.7404 22.4297 17.6836C22.3464 17.8156 22.2761 17.9562 22.2188 18.1055C22.0759 17.946 21.9821 17.9928 21.9375 18.2461C21.8854 18.3263 21.8268 18.3263 21.7617 18.2461C21.6785 18.3548 21.6082 18.472 21.5508 18.5977C21.5039 18.5742 21.4571 18.5508 21.4102 18.5273C21.345 18.6408 21.2863 18.7579 21.2344 18.8789C21.1875 18.832 21.1406 18.7852 21.0938 18.7383C21.0234 18.8789 20.9531 19.0195 20.8828 19.1602C20.8534 19.0778 20.8065 19.0074 20.7422 18.9492C20.704 19.0991 20.6454 19.2397 20.5664 19.3711C20.5195 19.3477 20.4727 19.3242 20.4258 19.3008C20.3606 19.4142 20.302 19.5313 20.25 19.6523C20.2031 19.6054 20.1563 19.5586 20.1094 19.5117C20.0261 19.6437 19.9557 19.7843 19.8984 19.9336C19.8515 19.8867 19.8047 19.8399 19.7578 19.793C19.7059 19.914 19.6472 20.0311 19.582 20.1445C19.5351 20.1211 19.4883 20.0976 19.4414 20.0742C19.3582 20.1829 19.2878 20.3001 19.2305 20.4258C19.1818 20.3889 19.1467 20.342 19.125 20.2852C19.0417 20.4171 18.9714 20.5578 18.9141 20.707C18.8672 20.6601 18.8203 20.6133 18.7734 20.5664C18.7031 20.707 18.6328 20.8477 18.5625 20.9883C18.5408 20.9315 18.5057 20.8846 18.457 20.8477C18.3738 20.9564 18.3035 21.0736 18.2461 21.1992C18.1992 21.1758 18.1524 21.1523 18.1055 21.1289C18.0403 21.2423 17.9816 21.3595 17.9297 21.4805C17.8828 21.4336 17.836 21.3867 17.7891 21.3398C17.7188 21.4805 17.6484 21.6211 17.5781 21.7617C17.5138 21.7035 17.467 21.6332 17.4375 21.5508C17.3993 21.7006 17.3408 21.8412 17.2617 21.9727C17.2148 21.9492 17.168 21.9258 17.1211 21.9023C17.0637 22.028 16.9934 22.1452 16.9102 22.2539C16.8615 22.217 16.8263 22.1701 16.8047 22.1133C16.7214 22.2453 16.6511 22.3859 16.5938 22.5352C16.4509 22.3757 16.3571 22.4225 16.3125 22.6758C16.2604 22.756 16.2018 22.756 16.1367 22.6758C16.0535 22.7845 15.9832 22.9017 15.9258 23.0273C15.8789 23.0039 15.8321 22.9804 15.7852 22.957C15.72 23.0704 15.6613 23.1876 15.6094 23.3086C15.5625 23.2617 15.5156 23.2149 15.4688 23.168C15.3984 23.3086 15.3281 23.4492 15.2578 23.5898C15.1935 23.5316 15.1466 23.4613 15.1172 23.3789C15.079 23.5287 15.0204 23.6694 14.9414 23.8008C14.8945 23.7774 14.8477 23.7539 14.8008 23.7305C14.7356 23.8439 14.677 23.961 14.625 24.082C14.5781 24.0351 14.5313 23.9883 14.4844 23.9414C14.4011 24.0734 14.3307 24.214 14.2734 24.3633C14.2265 24.3164 14.1797 24.2696 14.1328 24.2227C14.0809 24.3437 14.0222 24.4608 13.957 24.5742C13.9101 24.5508 13.8633 24.5273 13.8164 24.5039C13.7332 24.6126 13.6628 24.7298 13.6055 24.8555C13.5568 24.8186 13.5217 24.7717 13.5 24.7148C13.4167 24.8468 13.3464 24.9874 13.2891 25.1367C13.1664 24.9526 13.0844 24.9761 13.043 25.207C12.9727 25.1601 12.9023 25.1133 12.832 25.0664C12.6065 24.8029 12.4542 24.4981 12.375 24.1523C12.152 23.2604 11.9294 22.3698 11.707 21.4805C11.2622 19.7009 10.8168 17.9196 10.3711 16.1367C10.1549 15.2837 9.94395 14.4282 9.73828 13.5703C9.7617 13.5352 9.78518 13.5 9.80859 13.4648C10.8821 13.655 11.9602 13.8191 13.043 13.957C13.6931 14.0918 14.3494 14.1504 15.0117 14.1328C15.9849 12.9139 16.9693 11.7068 17.9648 10.5117C18.274 10.8205 18.5553 11.1486 18.8086 11.4961Z" fill="white"/>
<path fill-rule="evenodd" clip-rule="evenodd" d="M24.9258 12.9023C25.6564 12.8079 26.3829 12.6907 27.1055 12.5508C27.1956 12.6533 27.1956 12.7471 27.1055 12.832C27.11 12.8012 27.0984 12.7778 27.0703 12.7617C26.7884 13.0553 26.4954 13.3366 26.1914 13.6055C26.1709 13.5247 26.1124 13.4778 26.0156 13.4648C24.319 13.7408 22.6197 13.9634 20.918 14.1328C20.2058 13.2582 19.5026 12.3793 18.8086 11.4961C18.8786 11.49 18.9372 11.5135 18.9844 11.5664C19.0371 11.5224 19.0958 11.4872 19.1602 11.4609C19.2604 11.3652 19.3189 11.2597 19.3359 11.1445C19.947 11.7558 20.5095 12.4121 21.0234 13.1133C21.1246 13.2503 21.2535 13.344 21.4102 13.3945C22.574 13.178 23.7459 13.014 24.9258 12.9023Z" fill="#F9B43C"/>
<path fill-rule="evenodd" clip-rule="evenodd" d="M25.7695 15.1524C25.4939 16.4623 25.1658 17.7514 24.7852 19.0196C24.7418 19.0274 24.7066 19.0508 24.6797 19.0899C24.5663 18.9086 24.4609 18.9086 24.3633 19.0899C24.5566 19.1255 24.545 19.2193 24.3281 19.3712C24.2638 19.313 24.217 19.2427 24.1875 19.1603C24.1556 19.3199 24.1087 19.484 24.0469 19.6524C23.9531 19.6055 23.8828 19.5352 23.8359 19.4415C23.7588 19.6359 23.6182 19.7531 23.4141 19.7931C23.3672 19.84 23.3672 19.8868 23.4141 19.9337C23.46 19.8496 23.4952 19.8496 23.5195 19.9337C23.403 20.2052 23.2976 20.2052 23.2031 19.9337C23.1302 20.0545 23.0951 20.1834 23.0977 20.3204C22.9846 20.3667 22.9025 20.3315 22.8516 20.2149C22.7744 20.4094 22.6338 20.5265 22.4297 20.5665C22.3828 20.6134 22.3828 20.6602 22.4297 20.7071C22.4757 20.623 22.5108 20.623 22.5352 20.7071C22.4465 20.9406 22.3293 20.9641 22.1836 20.7774C22.1133 20.8009 22.0664 20.8478 22.043 20.9181C22.0899 20.9415 22.1367 20.965 22.1836 20.9884C22.0768 21.1687 21.9713 21.1687 21.8672 20.9884C21.8353 21.1481 21.7884 21.3121 21.7266 21.4806C21.6328 21.4337 21.5625 21.3634 21.5156 21.2696C21.4385 21.464 21.2979 21.5812 21.0938 21.6212C21.0469 21.6681 21.0469 21.7149 21.0938 21.7618C21.1397 21.6777 21.1749 21.6777 21.1992 21.7618C21.0827 22.0333 20.9772 22.0333 20.8828 21.7618C20.8594 21.7852 20.8359 21.8087 20.8125 21.8321C20.8817 21.9796 20.8583 22.1203 20.7422 22.254C20.6485 22.2071 20.5781 22.1368 20.5312 22.0431C20.4541 22.2375 20.3135 22.3546 20.1094 22.3946C20.0625 22.4415 20.0625 22.4884 20.1094 22.5353C20.1554 22.4512 20.1905 22.4512 20.2148 22.5353C20.0983 22.8067 19.9929 22.8067 19.8984 22.5353C19.8255 22.6561 19.7904 22.7849 19.793 22.922C19.6799 22.9682 19.5979 22.9331 19.5469 22.8165C19.4697 23.0109 19.3291 23.1281 19.125 23.1681C19.0781 23.215 19.0781 23.2618 19.125 23.3087C19.171 23.2246 19.2061 23.2246 19.2305 23.3087C19.1851 23.3893 19.1265 23.4596 19.0547 23.5196C18.9413 23.3383 18.8359 23.3383 18.7383 23.5196C18.9316 23.5552 18.92 23.649 18.7031 23.8009C18.6388 23.7427 18.592 23.6723 18.5625 23.5899C18.5306 23.7496 18.4837 23.9137 18.4219 24.0821C18.3281 24.0352 18.2578 23.9649 18.2109 23.8712C18.1338 24.0656 17.9932 24.1827 17.7891 24.2228C17.7422 24.2697 17.7422 24.3165 17.7891 24.3634C17.835 24.2793 17.8702 24.2793 17.8945 24.3634C17.778 24.6349 17.6726 24.6349 17.5781 24.3634C17.5052 24.4842 17.4701 24.6131 17.4727 24.7501C17.3596 24.7964 17.2775 24.7612 17.2266 24.6446C17.1494 24.839 17.0088 24.9562 16.8047 24.9962C16.7578 25.0431 16.7578 25.0899 16.8047 25.1368C16.8507 25.0527 16.8858 25.0527 16.9102 25.1368C16.8215 25.3703 16.7043 25.3937 16.5586 25.2071C16.4883 25.2305 16.4414 25.2774 16.418 25.3478C17.5185 25.418 18.6201 25.4415 19.7227 25.4181C20.5898 25.4181 21.4571 25.4181 22.3242 25.4181C19.4298 25.5 16.5236 25.5117 13.6055 25.4532C13.4079 25.3895 13.2204 25.3075 13.043 25.2071C13.0844 24.9762 13.1664 24.9527 13.2891 25.1368C13.3464 24.9875 13.4167 24.8469 13.5 24.7149C13.5217 24.7718 13.5568 24.8187 13.6055 24.8556C13.6628 24.7299 13.7332 24.6127 13.8164 24.504C13.8633 24.5274 13.9101 24.5509 13.957 24.5743C14.0222 24.4609 14.0809 24.3438 14.1328 24.2228C14.1797 24.2697 14.2265 24.3165 14.2734 24.3634C14.3307 24.2141 14.4011 24.0735 14.4844 23.9415C14.5313 23.9884 14.5781 24.0352 14.625 24.0821C14.677 23.9611 14.7356 23.844 14.8008 23.7306C14.8477 23.754 14.8945 23.7775 14.9414 23.8009C15.0204 23.6695 15.079 23.5288 15.1172 23.379C15.1466 23.4614 15.1935 23.5317 15.2578 23.5899C15.3281 23.4493 15.3984 23.3087 15.4688 23.1681C15.5156 23.215 15.5625 23.2618 15.6094 23.3087C15.6613 23.1877 15.72 23.0705 15.7852 22.9571C15.8321 22.9805 15.8789 23.004 15.9258 23.0274C15.9832 22.9018 16.0535 22.7846 16.1367 22.6759C16.2018 22.7561 16.2604 22.7561 16.3125 22.6759C16.3571 22.4226 16.4509 22.3758 16.5938 22.5353C16.6511 22.386 16.7214 22.2454 16.8047 22.1134C16.8263 22.1702 16.8615 22.2171 16.9102 22.254C16.9934 22.1453 17.0637 22.0281 17.1211 21.9024C17.168 21.9259 17.2148 21.9493 17.2617 21.9728C17.3408 21.8413 17.3993 21.7007 17.4375 21.5509C17.467 21.6333 17.5138 21.7036 17.5781 21.7618C17.6484 21.6212 17.7188 21.4806 17.7891 21.3399C17.836 21.3868 17.8828 21.4337 17.9297 21.4806C17.9816 21.3596 18.0403 21.2424 18.1055 21.129C18.1524 21.1524 18.1992 21.1759 18.2461 21.1993C18.3035 21.0737 18.3738 20.9565 18.457 20.8478C18.5057 20.8847 18.5408 20.9316 18.5625 20.9884C18.6328 20.8478 18.7031 20.7071 18.7734 20.5665C18.8203 20.6134 18.8672 20.6602 18.9141 20.7071C18.9714 20.5579 19.0417 20.4172 19.125 20.2853C19.1467 20.3421 19.1818 20.389 19.2305 20.4259C19.2878 20.3002 19.3582 20.183 19.4414 20.0743C19.4883 20.0977 19.5351 20.1212 19.582 20.1446C19.6472 20.0312 19.7059 19.9141 19.7578 19.7931C19.8047 19.84 19.8515 19.8868 19.8984 19.9337C19.9557 19.7844 20.0261 19.6438 20.1094 19.5118C20.1563 19.5587 20.2031 19.6055 20.25 19.6524C20.302 19.5314 20.3606 19.4143 20.4258 19.3009C20.4727 19.3243 20.5195 19.3478 20.5664 19.3712C20.6454 19.2398 20.704 19.0992 20.7422 18.9493C20.8065 19.0075 20.8534 19.0778 20.8828 19.1603C20.9531 19.0196 21.0234 18.879 21.0938 18.7384C21.1406 18.7853 21.1875 18.8321 21.2344 18.879C21.2863 18.758 21.345 18.6409 21.4102 18.5274C21.4571 18.5509 21.5039 18.5743 21.5508 18.5978C21.6082 18.4721 21.6785 18.3549 21.7617 18.2462C21.8268 18.3264 21.8854 18.3264 21.9375 18.2462C21.9821 17.9929 22.0759 17.9461 22.2188 18.1056C22.2761 17.9563 22.3464 17.8157 22.4297 17.6837C22.4513 17.7405 22.4865 17.7874 22.5352 17.8243C22.6184 17.7156 22.6887 17.5984 22.7461 17.4728C22.793 17.4962 22.8398 17.5197 22.8867 17.5431C22.9657 17.4117 23.0243 17.271 23.0625 17.1212C23.092 17.2036 23.1388 17.2739 23.2031 17.3321C23.2734 17.1915 23.3438 17.0509 23.4141 16.9103C23.461 16.9572 23.5078 17.004 23.5547 17.0509C23.6066 16.9299 23.6653 16.8127 23.7305 16.6993C23.7774 16.7227 23.8242 16.7462 23.8711 16.7696C23.9501 16.6382 24.0087 16.4976 24.0469 16.3478C24.1112 16.406 24.158 16.4763 24.1875 16.5587C24.2578 16.4181 24.3281 16.2774 24.3984 16.1368C24.4453 16.1837 24.4922 16.2305 24.5391 16.2774C24.5964 16.1282 24.6667 15.9875 24.75 15.8556C24.7717 15.9124 24.8068 15.9593 24.8555 15.9962C24.9128 15.8705 24.9832 15.7533 25.0664 15.6446C25.1133 15.668 25.1601 15.6915 25.207 15.7149C25.2722 15.6015 25.3309 15.4844 25.3828 15.3634C25.4297 15.4103 25.4765 15.4571 25.5234 15.504C25.584 15.3924 25.6309 15.2752 25.6641 15.1524C25.7126 15.0654 25.7477 15.0654 25.7695 15.1524Z" fill="#F5F6FB"/>
<path opacity="0.998" fill-rule="evenodd" clip-rule="evenodd" d="M33.9961 13.8164C34.1838 14.3561 34.301 14.9186 34.3477 15.5039C34.2964 15.6978 34.2847 15.9087 34.3125 16.1367C33.852 16.6442 33.3481 17.1013 32.8008 17.5078C32.6836 17.6719 32.5664 17.836 32.4492 18C32.0318 18.2087 31.7037 18.5134 31.4648 18.9141C31.2125 19.0486 30.9781 19.2127 30.7617 19.4062C30.668 19.5469 30.5742 19.6875 30.4805 19.8281C30.0962 20.0602 29.7681 20.3531 29.4961 20.707C28.9457 21.1986 28.3832 21.6791 27.8086 22.1484C27.52 22.4888 27.1919 22.7936 26.8242 23.0625C26.707 23.2265 26.5899 23.3906 26.4727 23.5547C26.0552 23.7634 25.7271 24.068 25.4883 24.4688C25.104 24.7008 24.7759 24.9937 24.5039 25.3477C23.9535 25.8392 23.391 26.3197 22.8164 26.7891C22.7362 26.9278 22.6425 27.0567 22.5352 27.1758C21.965 27.6492 21.4025 28.1297 20.8477 28.6172C20.5386 29.0045 20.1753 29.3444 19.7578 29.6367C19.6758 29.7656 19.5938 29.8946 19.5117 30.0234C19.1275 30.2555 18.7994 30.5484 18.5273 30.9023C17.9769 31.3939 17.4144 31.8744 16.8398 32.3438C16.5513 32.6841 16.2231 32.9889 15.8555 33.2578C15.7383 33.4219 15.6211 33.586 15.5039 33.75C15.2753 33.8609 15.0644 34.0015 14.8711 34.1719C14.9806 34.1866 15.0744 34.2218 15.1523 34.2773C15.1523 34.3008 15.1523 34.3242 15.1523 34.3477C14.3784 34.2012 13.6284 33.9903 12.9023 33.7148C13.8373 32.8621 14.7631 31.9949 15.6797 31.1133C15.7031 31.1367 15.7266 31.1602 15.75 31.1836C16.0547 30.832 16.3594 30.4805 16.6641 30.1289C16.6875 30.1758 16.711 30.2226 16.7344 30.2695C17.1562 29.8008 17.5781 29.3321 18 28.8633C18.0234 28.8867 18.0469 28.9102 18.0703 28.9336C18.4196 28.5139 18.7946 28.1155 19.1953 27.7383C19.2187 27.7617 19.2422 27.7852 19.2656 27.8086C19.7461 27.2343 20.25 26.7304 20.7773 26.2969C19.1013 26.2851 17.4372 26.2499 15.7852 26.1914C18.0118 26.2031 20.2384 26.1914 22.4648 26.1562C23.1057 26.0176 23.6097 25.6778 23.9766 25.1367C24.2694 24.2451 24.5389 23.3544 24.7852 22.4648C25.0625 22.2238 25.3555 21.9426 25.6641 21.6211C25.6875 21.6445 25.711 21.668 25.7344 21.6914C26.0132 21.3422 26.3179 21.014 26.6484 20.707C26.6719 20.7304 26.6953 20.7539 26.7188 20.7773C27.0211 20.4046 27.3492 20.0531 27.7031 19.7227C27.7265 19.7461 27.75 19.7696 27.7734 19.793C28.0523 19.4437 28.357 19.1156 28.6875 18.8086C28.7109 18.832 28.7344 18.8555 28.7578 18.8789C29.0625 18.5273 29.3672 18.1758 29.6719 17.8242C29.6953 17.8711 29.7188 17.9179 29.7422 17.9648C30.1875 17.4727 30.6328 16.9805 31.0781 16.4883C31.1015 16.5117 31.125 16.5352 31.1484 16.5586C31.4742 16.1624 31.8258 15.7874 32.2031 15.4336C32.2265 15.457 32.25 15.4805 32.2734 15.5039C32.815 14.8563 33.3892 14.2938 33.9961 13.8164Z" fill="#F9B439"/>
<path opacity="0.997" fill-rule="evenodd" clip-rule="evenodd" d="M10.3711 16.1367C10.8168 17.9196 11.2622 19.7009 11.707 21.4805C11.5016 21.4817 11.3493 21.5989 11.25 21.832C11.2266 21.8086 11.2031 21.7851 11.1797 21.7617C11.11 21.8271 11.0749 21.9091 11.0742 22.0078C11.3064 23.0657 11.5876 24.1086 11.918 25.1367C11.3251 25.6239 10.7626 26.1513 10.2305 26.7188C10.2875 26.8798 10.2289 27.0088 10.0547 27.1055C10.0078 27.0586 9.96096 27.0117 9.91406 26.9648C9.69138 27.1875 9.46877 27.4101 9.24609 27.6328C9.30312 27.7939 9.24448 27.9229 9.07031 28.0195C8.9602 27.9801 8.86648 28.027 8.78906 28.1602C8.76565 28.1367 8.74216 28.1133 8.71875 28.0898C8.56638 28.2422 8.41409 28.3945 8.26172 28.5469C8.29898 28.6971 8.24041 28.826 8.08594 28.9336C8.06252 28.9102 8.03904 28.8867 8.01562 28.8633C7.76897 29.161 7.49939 29.3837 7.20703 29.5312C7.23916 29.5604 7.26265 29.5955 7.27734 29.6367C7.16316 29.733 7.128 29.8502 7.17188 29.9883C7.25013 29.8597 7.3556 29.801 7.48828 29.8125C7.33043 30.0045 7.1898 30.2037 7.06641 30.4102C4.99077 28.5917 3.46733 26.3886 2.49609 23.8008C2.66712 23.7129 2.83118 23.6074 2.98828 23.4844C5.27636 21.2782 7.57322 19.0868 9.87891 16.9102C9.80937 16.8421 9.76247 16.76 9.73828 16.6641C9.8472 16.3298 10.0581 16.154 10.3711 16.1367Z" fill="#FBBD41"/>
<path opacity="0.999" fill-rule="evenodd" clip-rule="evenodd" d="M34.3477 15.5039C34.4451 16.0064 34.5154 16.522 34.5586 17.0508C34.5077 17.3225 34.4608 17.6038 34.418 17.8945C34.4927 18.1246 34.4692 18.3473 34.3477 18.5625C34.3711 18.5859 34.3946 18.6094 34.418 18.6328C34.0873 18.8415 33.7591 19.0993 33.4336 19.4062C33.457 19.4297 33.4805 19.4531 33.5039 19.4766C33.3515 19.6289 33.1992 19.7812 33.0469 19.9336C33.0235 19.9102 33 19.8867 32.9766 19.8633C32.6567 20.1998 32.3286 20.5514 31.9922 20.918C31.9688 20.8946 31.9453 20.8711 31.9219 20.8477C31.643 21.1969 31.3384 21.525 31.0078 21.832C30.9844 21.8086 30.9609 21.7851 30.9375 21.7617C30.6586 22.111 30.354 22.4391 30.0234 22.7461C30 22.7227 29.9765 22.6992 29.9531 22.6758C29.749 22.8528 29.5966 23.0285 29.4961 23.2031C29.3437 23.3555 29.1914 23.5078 29.0391 23.6602C29.0156 23.6367 28.9922 23.6133 28.9688 23.5898C28.7646 23.7668 28.6123 23.9426 28.5117 24.1172C28.3594 24.2696 28.2071 24.4219 28.0547 24.5742C28.0313 24.5508 28.0078 24.5273 27.9844 24.5039C27.7803 24.6809 27.6279 24.8567 27.5273 25.0312C27.375 25.1836 27.2227 25.3359 27.0703 25.4883C27.0469 25.4649 27.0234 25.4414 27 25.418C26.6801 25.7545 26.352 26.106 26.0156 26.4727C25.9922 26.4492 25.9687 26.4258 25.9453 26.4023C25.6665 26.7516 25.3618 27.0797 25.0312 27.3867C25.0078 27.3633 24.9844 27.3398 24.9609 27.3164C24.6821 27.6656 24.3774 27.9938 24.0469 28.3008C24.0235 28.2774 24 28.2539 23.9766 28.2305C23.7724 28.4074 23.6201 28.5832 23.5195 28.7578C23.3672 28.9102 23.2149 29.0625 23.0625 29.2148C23.0391 29.1914 23.0156 29.1679 22.9922 29.1445C22.7881 29.3215 22.6357 29.4973 22.5352 29.6719C22.3828 29.8242 22.2305 29.9765 22.0781 30.1289C22.0547 30.1055 22.0312 30.082 22.0078 30.0586C21.688 30.3951 21.3598 30.7467 21.0234 31.1133C21 31.0899 20.9765 31.0664 20.9531 31.043C20.6987 31.3696 20.394 31.6978 20.0391 32.0273C20.0156 32.0039 19.9922 31.9804 19.9688 31.957C19.6899 32.3063 19.3852 32.6344 19.0547 32.9414C19.0313 32.918 19.0078 32.8945 18.9844 32.8711C18.7803 33.0481 18.6279 33.2239 18.5273 33.3984C18.375 33.5508 18.2227 33.7031 18.0703 33.8555C18.0469 33.8321 18.0234 33.8086 18 33.7852C17.7728 33.9856 17.597 34.1848 17.4727 34.3828C17.3601 34.402 17.2546 34.4372 17.1562 34.4883C16.5078 34.412 15.8399 34.3417 15.1523 34.2773C15.0744 34.2218 14.9806 34.1866 14.8711 34.1719C15.0644 34.0015 15.2753 33.8609 15.5039 33.75C15.6211 33.586 15.7383 33.4219 15.8555 33.2578C16.2231 32.9889 16.5513 32.6841 16.8398 32.3438C17.4144 31.8744 17.9769 31.3939 18.5273 30.9023C18.7994 30.5484 19.1275 30.2555 19.5117 30.0234C19.5938 29.8946 19.6758 29.7656 19.7578 29.6367C20.1753 29.3444 20.5386 29.0045 20.8477 28.6172C21.4025 28.1297 21.965 27.6492 22.5352 27.1758C22.6425 27.0567 22.7362 26.9278 22.8164 26.7891C23.391 26.3197 23.9535 25.8392 24.5039 25.3477C24.7759 24.9937 25.104 24.7008 25.4883 24.4688C25.7271 24.068 26.0552 23.7634 26.4727 23.5547C26.5899 23.3906 26.707 23.2265 26.8242 23.0625C27.1919 22.7936 27.52 22.4888 27.8086 22.1484C28.3832 21.6791 28.9457 21.1986 29.4961 20.707C29.7681 20.3531 30.0962 20.0602 30.4805 19.8281C30.5742 19.6875 30.668 19.5469 30.7617 19.4062C30.9781 19.2127 31.2125 19.0486 31.4648 18.9141C31.7037 18.5134 32.0318 18.2087 32.4492 18C32.5664 17.836 32.6836 17.6719 32.8008 17.5078C33.3481 17.1013 33.852 16.6442 34.3125 16.1367C34.2847 15.9087 34.2964 15.6978 34.3477 15.5039Z" fill="#F9B037"/>
<path opacity="0.998" fill-rule="evenodd" clip-rule="evenodd" d="M34.5586 17.0508C34.5692 18.0363 34.5458 19.0207 34.4883 20.0039C34.4375 19.9745 34.4024 19.9277 34.3828 19.8633C34.3316 20.1471 34.2731 20.4283 34.207 20.707C34.2217 20.7482 34.2452 20.7834 34.2773 20.8125C34.1487 21.0931 34.0549 21.3861 33.9961 21.6914C29.5177 25.8652 25.0412 30.0371 20.5664 34.207C19.6969 34.3815 18.8297 34.4988 17.9648 34.5586C17.0222 34.5534 16.0847 34.4831 15.1523 34.3477C15.1523 34.3242 15.1523 34.3008 15.1523 34.2773C15.8399 34.3417 16.5078 34.412 17.1563 34.4883C17.2546 34.4372 17.3601 34.402 17.4727 34.3828C17.597 34.1848 17.7728 33.9856 18 33.7852C18.0234 33.8086 18.0469 33.8321 18.0703 33.8555C18.2227 33.7031 18.375 33.5508 18.5273 33.3984C18.6279 33.2239 18.7803 33.0481 18.9844 32.8711C19.0078 32.8945 19.0313 32.918 19.0547 32.9414C19.3852 32.6344 19.6899 32.3063 19.9688 31.957C19.9922 31.9804 20.0156 32.0039 20.0391 32.0273C20.394 31.6978 20.6987 31.3696 20.9531 31.043C20.9765 31.0664 21 31.0899 21.0234 31.1133C21.3598 30.7467 21.688 30.3951 22.0078 30.0586C22.0312 30.082 22.0547 30.1055 22.0781 30.1289C22.2305 29.9765 22.3828 29.8242 22.5352 29.6719C22.6357 29.4973 22.7881 29.3215 22.9922 29.1445C23.0156 29.1679 23.0391 29.1914 23.0625 29.2148C23.2149 29.0625 23.3672 28.9102 23.5195 28.7578C23.6201 28.5832 23.7724 28.4074 23.9766 28.2305C24 28.2539 24.0235 28.2774 24.0469 28.3008C24.3774 27.9938 24.6821 27.6656 24.9609 27.3164C24.9844 27.3398 25.0078 27.3633 25.0313 27.3867C25.3618 27.0797 25.6665 26.7516 25.9453 26.4023C25.9687 26.4258 25.9922 26.4492 26.0156 26.4727C26.352 26.106 26.6802 25.7545 27 25.418C27.0234 25.4414 27.0469 25.4649 27.0703 25.4883C27.2227 25.3359 27.375 25.1836 27.5273 25.0312C27.6279 24.8567 27.7803 24.6809 27.9844 24.5039C28.0078 24.5273 28.0313 24.5508 28.0547 24.5742C28.2071 24.4219 28.3594 24.2696 28.5117 24.1172C28.6123 23.9426 28.7646 23.7668 28.9688 23.5898C28.9922 23.6133 29.0156 23.6367 29.0391 23.6602C29.1914 23.5078 29.3437 23.3555 29.4961 23.2031C29.5966 23.0285 29.749 22.8528 29.9531 22.6758C29.9765 22.6992 30 22.7227 30.0234 22.7461C30.354 22.4391 30.6586 22.111 30.9375 21.7617C30.9609 21.7851 30.9844 21.8086 31.0078 21.832C31.3384 21.525 31.643 21.1969 31.9219 20.8477C31.9453 20.8711 31.9688 20.8946 31.9922 20.918C32.3286 20.5514 32.6567 20.1998 32.9766 19.8633C33 19.8867 33.0235 19.9102 33.0469 19.9336C33.1992 19.7812 33.3515 19.6289 33.5039 19.4766C33.4805 19.4531 33.457 19.4297 33.4336 19.4062C33.7591 19.0993 34.0873 18.8415 34.418 18.6328C34.3946 18.6094 34.3711 18.5859 34.3477 18.5625C34.4692 18.3473 34.4927 18.1246 34.418 17.8945C34.4608 17.6038 34.5077 17.3225 34.5586 17.0508Z" fill="#F8AC33"/>
<path opacity="0.996" fill-rule="evenodd" clip-rule="evenodd" d="M34.4883 20.0039C34.3003 21.389 33.9487 22.7249 33.4336 24.0117C33.4428 23.9598 33.4311 23.9129 33.3984 23.8711C32.9973 24.8583 32.5169 25.7723 31.957 26.6133C31.7035 26.7611 31.4808 26.9486 31.2891 27.1758C31.2656 27.1524 31.2422 27.1289 31.2188 27.1055C31.1434 27.327 30.9911 27.5261 30.7617 27.7031C30.5652 27.8292 30.3894 27.9816 30.2344 28.1602C30.211 28.1367 30.1875 28.1133 30.1641 28.0898C30.1132 28.2875 29.9843 28.4633 29.7773 28.6172C29.5808 28.7433 29.405 28.8956 29.25 29.0742C29.2266 29.0508 29.2031 29.0273 29.1797 29.0039C29.1289 29.2016 29 29.3773 28.793 29.5312C28.5964 29.6573 28.4207 29.8097 28.2656 29.9883C28.2422 29.9649 28.2187 29.9414 28.1953 29.918C28.1445 30.1156 28.0156 30.2914 27.8086 30.4453C27.6121 30.5714 27.4363 30.7238 27.2812 30.9023C27.1853 30.849 27.1033 30.8842 27.0352 31.0078C27.0586 31.0312 27.0821 31.0547 27.1055 31.0781C26.7564 31.4082 26.4049 31.6894 26.0508 31.9219C26.0742 31.9453 26.0977 31.9688 26.1211 31.9922C25.8955 32.2296 25.6611 32.4523 25.418 32.6602C24.71 33.014 23.9834 33.3304 23.2383 33.6094C23.2774 33.6363 23.3008 33.6715 23.3086 33.7148C21.5779 34.3001 19.7967 34.5814 17.9648 34.5586C18.8297 34.4988 19.6969 34.3815 20.5664 34.207C25.0412 30.0371 29.5177 25.8652 33.9961 21.6914C34.0549 21.3861 34.1487 21.0931 34.2773 20.8125C34.2452 20.7834 34.2217 20.7482 34.207 20.707C34.2731 20.4283 34.3316 20.1471 34.3828 19.8633C34.4024 19.9277 34.4375 19.9745 34.4883 20.0039Z" fill="#F7A62F"/>
<path fill-rule="evenodd" clip-rule="evenodd" d="M24.0117 22.1133C23.8423 23.0486 23.5962 23.9627 23.2734 24.8555C23.0231 25.162 22.7066 25.3495 22.3242 25.418C21.4571 25.418 20.5898 25.418 19.7227 25.418C19.8878 25.2711 20.0402 25.107 20.1797 24.9258C20.2031 24.9492 20.2266 24.9727 20.25 24.9961C20.3607 24.8918 20.4544 24.7745 20.5312 24.6445C20.5547 24.6679 20.5781 24.6914 20.6016 24.7148C20.9071 24.4285 21.2119 24.1472 21.5156 23.8711C21.539 23.8945 21.5625 23.918 21.5859 23.9414C21.6811 23.8581 21.7631 23.7643 21.832 23.6602C21.8732 23.6749 21.9084 23.6983 21.9375 23.7305C22.0982 23.4915 22.2858 23.2805 22.5 23.0977C22.5234 23.1211 22.5469 23.1446 22.5703 23.168C22.681 23.0636 22.7747 22.9464 22.8516 22.8164C22.875 22.8398 22.8985 22.8633 22.9219 22.8867C23.115 22.6992 23.3025 22.5117 23.4844 22.3242C23.5078 22.3476 23.5313 22.3711 23.5547 22.3945C23.6654 22.2902 23.7591 22.173 23.8359 22.043C23.9028 22.07 23.9614 22.0934 24.0117 22.1133Z" fill="#F5F6FB"/>
<path fill-rule="evenodd" clip-rule="evenodd" d="M24.7852 19.0195C24.5696 20.0691 24.3118 21.1003 24.0117 22.1133C23.9614 22.0934 23.9028 22.07 23.8359 22.043C23.7591 22.173 23.6654 22.2902 23.5547 22.3945C23.5313 22.3711 23.5078 22.3476 23.4844 22.3242C23.3025 22.5118 23.115 22.6992 22.9219 22.8867C22.8985 22.8633 22.875 22.8398 22.8516 22.8164C22.7747 22.9464 22.681 23.0636 22.5703 23.168C22.5469 23.1446 22.5234 23.1211 22.5 23.0977C22.2858 23.2806 22.0982 23.4915 21.9375 23.7305C21.9084 23.6984 21.8732 23.6749 21.832 23.6602C21.7631 23.7643 21.6811 23.8581 21.5859 23.9414C21.5625 23.918 21.539 23.8945 21.5156 23.8711C21.2119 24.1472 20.9071 24.4285 20.6016 24.7149C20.5781 24.6914 20.5547 24.668 20.5312 24.6445C20.4544 24.7746 20.3607 24.8918 20.25 24.9961C20.2266 24.9727 20.2031 24.9492 20.1797 24.9258C20.0402 25.1071 19.8878 25.2711 19.7227 25.418C18.6201 25.4414 17.5185 25.4179 16.418 25.3477C16.4414 25.2774 16.4883 25.2305 16.5586 25.207C16.7043 25.3937 16.8215 25.3702 16.9102 25.1367C16.8858 25.0526 16.8507 25.0526 16.8047 25.1367C16.7578 25.0898 16.7578 25.043 16.8047 24.9961C17.0088 24.9561 17.1494 24.839 17.2266 24.6445C17.2775 24.7611 17.3596 24.7963 17.4727 24.75C17.4701 24.613 17.5052 24.4841 17.5781 24.3633C17.6726 24.6348 17.778 24.6348 17.8945 24.3633C17.8702 24.2792 17.835 24.2792 17.7891 24.3633C17.7422 24.3164 17.7422 24.2696 17.7891 24.2227C17.9932 24.1827 18.1338 24.0655 18.2109 23.8711C18.2578 23.9648 18.3281 24.0351 18.4219 24.082C18.4837 23.9136 18.5306 23.7495 18.5625 23.5899C18.592 23.6723 18.6388 23.7426 18.7031 23.8008C18.92 23.6489 18.9316 23.5551 18.7383 23.5195C18.8359 23.3382 18.9413 23.3382 19.0547 23.5195C19.1265 23.4595 19.1851 23.3892 19.2305 23.3086C19.2061 23.2245 19.171 23.2245 19.125 23.3086C19.0781 23.2617 19.0781 23.2149 19.125 23.168C19.3291 23.128 19.4697 23.0108 19.5469 22.8164C19.5979 22.933 19.6799 22.9682 19.793 22.9219C19.7904 22.7849 19.8255 22.656 19.8984 22.5352C19.9929 22.8066 20.0983 22.8066 20.2148 22.5352C20.1905 22.4511 20.1554 22.4511 20.1094 22.5352C20.0625 22.4883 20.0625 22.4414 20.1094 22.3945C20.3135 22.3545 20.4541 22.2374 20.5312 22.043C20.5781 22.1367 20.6485 22.207 20.7422 22.2539C20.8583 22.1202 20.8817 21.9796 20.8125 21.832C20.8359 21.8086 20.8594 21.7851 20.8828 21.7617C20.9772 22.0332 21.0827 22.0332 21.1992 21.7617C21.1749 21.6776 21.1397 21.6776 21.0938 21.7617C21.0469 21.7148 21.0469 21.668 21.0938 21.6211C21.2979 21.5811 21.4385 21.464 21.5156 21.2695C21.5625 21.3633 21.6328 21.4336 21.7266 21.4805C21.7884 21.312 21.8353 21.148 21.8672 20.9883C21.9713 21.1686 22.0768 21.1686 22.1836 20.9883C22.1367 20.9649 22.0899 20.9414 22.043 20.918C22.0664 20.8477 22.1133 20.8008 22.1836 20.7774C22.3293 20.964 22.4465 20.9405 22.5352 20.707C22.5108 20.623 22.4757 20.623 22.4297 20.707C22.3828 20.6601 22.3828 20.6133 22.4297 20.5664C22.6338 20.5264 22.7744 20.4093 22.8516 20.2149C22.9025 20.3314 22.9846 20.3666 23.0977 20.3203C23.0951 20.1833 23.1302 20.0544 23.2031 19.9336C23.2976 20.2051 23.403 20.2051 23.5195 19.9336C23.4952 19.8495 23.46 19.8495 23.4141 19.9336C23.3672 19.8867 23.3672 19.8399 23.4141 19.793C23.6182 19.753 23.7588 19.6358 23.8359 19.4414C23.8828 19.5351 23.9531 19.6055 24.0469 19.6524C24.1087 19.4839 24.1556 19.3199 24.1875 19.1602C24.217 19.2426 24.2638 19.3129 24.3281 19.3711C24.545 19.2192 24.5566 19.1254 24.3633 19.0899C24.4609 18.9085 24.5663 18.9085 24.6797 19.0899C24.7066 19.0508 24.7418 19.0274 24.7852 19.0195Z" fill="#F5F6FB"/>
<path fill-rule="evenodd" clip-rule="evenodd" d="M11.707 21.4805C11.9294 22.3698 12.152 23.2604 12.375 24.1523C12.4542 24.4981 12.6065 24.8029 12.832 25.0664C12.6704 25.1671 12.5532 25.1203 12.4805 24.9258C12.3826 25.0035 12.3005 25.0973 12.2344 25.207C12.1657 25.1175 12.107 25.1175 12.0586 25.207C12.0117 25.1836 11.9649 25.1601 11.918 25.1367C11.5876 24.1086 11.3064 23.0657 11.0742 22.0078C11.0749 21.9091 11.11 21.8271 11.1797 21.7617C11.2031 21.7851 11.2266 21.8086 11.25 21.832C11.3493 21.5989 11.5016 21.4817 11.707 21.4805Z" fill="#F9B13A"/>
<path fill-rule="evenodd" clip-rule="evenodd" d="M27.1055 12.832C26.9125 13.7738 26.7015 14.7113 26.4727 15.6445C25.8552 17.9034 25.2927 20.1768 24.7852 22.4648C24.5389 23.3544 24.2694 24.2451 23.9766 25.1367C23.6097 25.6778 23.1057 26.0176 22.4648 26.1562C20.2384 26.1914 18.0118 26.2031 15.7852 26.1914C15.082 26.1914 14.3789 26.1914 13.6758 26.1914C12.9656 26.13 12.4265 25.8018 12.0586 25.207C12.107 25.1175 12.1657 25.1175 12.2344 25.207C12.3005 25.0973 12.3826 25.0035 12.4805 24.9258C12.5532 25.1203 12.6704 25.1671 12.832 25.0664C12.9023 25.1133 12.9727 25.1601 13.043 25.207C13.2204 25.3074 13.4079 25.3894 13.6055 25.4531C16.5236 25.5116 19.4298 25.4999 22.3242 25.418C22.7066 25.3495 23.0231 25.162 23.2734 24.8555C23.5962 23.9627 23.8423 23.0486 24.0117 22.1133C24.3118 21.1003 24.5696 20.0691 24.7852 19.0195C25.1658 17.7513 25.4939 16.4622 25.7695 15.1523C25.9308 14.6483 26.0715 14.1327 26.1914 13.6055C26.4954 13.3366 26.7884 13.0553 27.0703 12.7617C27.0984 12.7777 27.11 12.8012 27.1055 12.832Z" fill="#F7A732"/>
<path opacity="0.999" fill-rule="evenodd" clip-rule="evenodd" d="M13.6758 26.1914C14.3789 26.1914 15.082 26.1914 15.7852 26.1914C17.4372 26.2499 19.1013 26.2851 20.7773 26.2969C20.25 26.7304 19.7461 27.2343 19.2656 27.8086C19.2422 27.7852 19.2187 27.7617 19.1953 27.7383C18.7946 28.1155 18.4196 28.5139 18.0703 28.9336C18.0469 28.9102 18.0234 28.8867 18 28.8633C17.5781 29.3321 17.1562 29.8008 16.7344 30.2695C16.711 30.2226 16.6875 30.1758 16.6641 30.1289C16.3594 30.4805 16.0547 30.832 15.75 31.1836C15.7266 31.1602 15.7031 31.1367 15.6797 31.1133C14.7631 31.9949 13.8373 32.8621 12.9023 33.7148C11.638 33.3637 10.4661 32.8246 9.38672 32.0977C9.37891 32.0543 9.3555 32.0191 9.31641 31.9922C11.3108 30.068 13.3264 28.1696 15.3633 26.2969C15.0289 26.2995 14.7241 26.2878 14.4492 26.2617C14.2926 26.3123 14.1637 26.406 14.0625 26.543C13.941 26.4239 13.9762 26.3418 14.168 26.2969C13.9923 26.2768 13.84 26.2885 13.7109 26.332C13.6783 26.2903 13.6666 26.2434 13.6758 26.1914Z" fill="#FAB83C"/>
<path fill-rule="evenodd" clip-rule="evenodd" d="M33.4336 24.0117C31.7437 28.2213 28.8374 31.2799 24.7148 33.1875C24.2526 33.3845 23.7838 33.5603 23.3086 33.7148C23.3008 33.6715 23.2774 33.6363 23.2383 33.6094C23.9834 33.3304 24.71 33.014 25.418 32.6602C25.6611 32.4523 25.8955 32.2296 26.1211 31.9922C26.0977 31.9688 26.0742 31.9453 26.0508 31.9219C26.4049 31.6894 26.7564 31.4082 27.1055 31.0781C27.0821 31.0547 27.0586 31.0312 27.0352 31.0078C27.1033 30.8842 27.1853 30.849 27.2812 30.9023C27.4363 30.7238 27.6121 30.5714 27.8086 30.4453C28.0156 30.2914 28.1445 30.1156 28.1953 29.918C28.2187 29.9414 28.2422 29.9649 28.2656 29.9883C28.4207 29.8097 28.5964 29.6573 28.793 29.5312C29 29.3773 29.1289 29.2016 29.1797 29.0039C29.2031 29.0273 29.2266 29.0508 29.25 29.0742C29.405 28.8956 29.5808 28.7433 29.7773 28.6172C29.9843 28.4633 30.1132 28.2875 30.1641 28.0898C30.1875 28.1133 30.211 28.1367 30.2344 28.1602C30.3894 27.9816 30.5652 27.8292 30.7617 27.7031C30.9911 27.5261 31.1434 27.327 31.2188 27.1055C31.2422 27.1289 31.2656 27.1524 31.2891 27.1758C31.4808 26.9486 31.7035 26.7611 31.957 26.6133C32.5169 25.7723 32.9973 24.8583 33.3984 23.8711C33.4311 23.9129 33.4428 23.9598 33.4336 24.0117Z" fill="#F6A02B"/>
<path fill-rule="evenodd" clip-rule="evenodd" d="M11.918 25.1367C11.9649 25.1601 12.0117 25.1836 12.0586 25.207C12.4265 25.8018 12.9656 26.13 13.6758 26.1914C13.6666 26.2434 13.6783 26.2903 13.7109 26.332C13.84 26.2885 13.9923 26.2768 14.168 26.2969C13.9762 26.3418 13.941 26.4239 14.0625 26.543C14.1637 26.406 14.2926 26.3123 14.4492 26.2617C14.7241 26.2878 15.0289 26.2995 15.3633 26.2969C13.3264 28.1696 11.3108 30.068 9.31641 31.9922C9.3555 32.0191 9.37891 32.0543 9.38672 32.0977C8.55309 31.6219 7.77966 31.0594 7.06641 30.4102C7.1898 30.2037 7.33043 30.0045 7.48828 29.8125C7.3556 29.801 7.25013 29.8597 7.17188 29.9883C7.128 29.8502 7.16316 29.733 7.27734 29.6367C7.26265 29.5955 7.23916 29.5604 7.20703 29.5312C7.49939 29.3837 7.76897 29.161 8.01562 28.8633C8.03904 28.8867 8.06252 28.9102 8.08594 28.9336C8.24041 28.826 8.29898 28.6971 8.26172 28.5469C8.41409 28.3945 8.56638 28.2422 8.71875 28.0898C8.74216 28.1133 8.76565 28.1367 8.78906 28.1602C8.86648 28.027 8.9602 27.9801 9.07031 28.0195C9.24448 27.9229 9.30312 27.7939 9.24609 27.6328C9.46877 27.4101 9.69138 27.1875 9.91406 26.9648C9.96096 27.0117 10.0078 27.0586 10.0547 27.1055C10.2289 27.0088 10.2875 26.8798 10.2305 26.7188C10.7626 26.1513 11.3251 25.6239 11.918 25.1367Z" fill="#FABB3E"/>
</svg>
