<svg width="16" height="16" viewBox="0 0 16 16" fill="none" xmlns="http://www.w3.org/2000/svg">
    <path d="M8.47118 10.3569L9.41399 11.2997L7.99978 12.714C6.69803 14.0157 4.58748 14.0157 3.28573 12.714C1.98399 11.4122 1.98399 9.30166 3.28573 7.99991L4.69995 6.5857L5.64276 7.52851L4.22854 8.94272C3.44749 9.72377 3.44749 10.9901 4.22854 11.7711C5.00959 12.5522 6.27592 12.5522 7.05697 11.7711L8.47118 10.3569Z" fill="#460BF9"/>
    <path d="M7.52837 5.64289L6.58556 4.70008L7.99978 3.28587C9.30153 1.98412 11.4121 1.98412 12.7138 3.28587C14.0156 4.58761 14.0156 6.69816 12.7138 7.99991L11.2996 9.41412L10.3568 8.47132L11.771 7.0571C12.5521 6.27605 12.5521 5.00972 11.771 4.22868C10.99 3.44763 9.72364 3.44763 8.94259 4.22868L7.52837 5.64289Z" fill="#460BF9"/>
    <path d="M9.8854 5.17148L5.17135 9.88553L6.11416 10.8283L10.8282 6.11429L9.8854 5.17148Z" fill="#460BF9"/>
</svg>
