<svg width="6" height="5" viewBox="0 0 6 5" fill="none" xmlns="http://www.w3.org/2000/svg">
    <path d="M5.25943 3.06604V5H4.12736V3.18396C4.12736 2.73585 3.96226 2.42925 3.56132 2.42925C3.25472 2.42925 3.06604 2.64151 2.99528 2.83019C2.9717 2.90094 2.94811 2.99528 2.94811 3.11321V5H1.81604C1.81604 5 1.83962 1.93396 1.81604 1.62736H2.94811V2.09906C3.08962 1.86321 3.37264 1.53302 3.96226 1.53302C4.6934 1.53302 5.25943 2.0283 5.25943 3.06604ZM0.636792 0C0.259433 0 0 0.259434 0 0.589623C0 0.919811 0.235849 1.17925 0.613207 1.17925C1.01415 1.17925 1.25 0.919811 1.25 0.589623C1.27358 0.235849 1.03774 0 0.636792 0ZM0.0707546 5H1.20283V1.62736H0.0707546V5Z" fill="#151515" fill-opacity="0.76"/>
</svg>
