<svg width="14" height="15" viewBox="0 0 14 15" fill="none" xmlns="http://www.w3.org/2000/svg">
    <path fill-rule="evenodd" clip-rule="evenodd" d="M1.33405 8.69109V8.5451C1.35546 8.11317 1.4939 7.69467 1.73507 7.33274C2.1365 6.89798 2.4113 6.36521 2.53064 5.79033C2.53064 5.34601 2.53064 4.89534 2.56945 4.45103C2.76996 2.31195 4.88501 0.833008 6.9742 0.833008H7.02594C9.11513 0.833008 11.2302 2.31195 11.4372 4.45103C11.476 4.89534 11.4372 5.34601 11.4695 5.79033C11.5905 6.36654 11.865 6.90097 12.2651 7.33909C12.5081 7.69781 12.6467 8.11478 12.6661 8.5451V8.68474C12.6805 9.26504 12.4807 9.83089 12.1034 10.2779C11.6048 10.8007 10.9282 11.1259 10.2018 11.192C8.07149 11.4205 5.92218 11.4205 3.79191 11.192C3.06626 11.123 2.39067 10.7983 1.8903 10.2779C1.51883 9.83055 1.32166 9.26806 1.33405 8.69109Z" stroke="#FCA016" stroke-width="1.5" stroke-linecap="round" stroke-linejoin="round"/>
    <path d="M5.37012 13.4004C5.70297 13.8182 6.19176 14.0886 6.72831 14.1517C7.26487 14.2148 7.80494 14.0655 8.229 13.7368C8.35943 13.6396 8.47679 13.5265 8.57828 13.4004" stroke="#FCA016" stroke-width="1.5" stroke-linecap="round" stroke-linejoin="round"/>
</svg>
