<svg width="15" height="14" viewBox="0 0 15 14" fill="none" xmlns="http://www.w3.org/2000/svg">
    <g clip-path="url(#clip0_91_984)">
        <path d="M11.5832 0H8.66651C8.5118 0 8.36343 0.0614582 8.25403 0.170854C8.14464 0.280251 8.08318 0.428624 8.08318 0.583333C8.08318 0.738043 8.14464 0.886416 8.25403 0.995812C8.36343 1.10521 8.5118 1.16667 8.66651 1.16667H11.5832C11.843 1.16767 12.0993 1.2275 12.3328 1.34167L0.670761 13.0043C0.615046 13.0581 0.570607 13.1224 0.540035 13.1936C0.509463 13.2648 0.493371 13.3413 0.492698 13.4188C0.492025 13.4962 0.506784 13.573 0.536115 13.6447C0.565445 13.7164 0.608759 13.7815 0.66353 13.8363C0.718301 13.8911 0.783431 13.9344 0.855121 13.9637C0.92681 13.9931 1.00362 14.0078 1.08108 14.0071C1.15853 14.0065 1.23508 13.9904 1.30625 13.9598C1.37742 13.9292 1.44178 13.8848 1.49559 13.8291L13.1582 2.16708C13.2723 2.40053 13.3322 2.6568 13.3332 2.91667V5.83333C13.3332 5.98804 13.3946 6.13642 13.504 6.24581C13.6134 6.35521 13.7618 6.41667 13.9165 6.41667C14.0712 6.41667 14.2196 6.35521 14.329 6.24581C14.4384 6.13642 14.4998 5.98804 14.4998 5.83333V2.91667C14.4989 2.1434 14.1913 1.40208 13.6446 0.855295C13.0978 0.308515 12.3564 0.00092625 11.5832 0V0Z" fill="#460BF9"/>
        <path d="M3.99984 5.83366C4.46133 5.83366 4.91245 5.69681 5.29617 5.44042C5.67988 5.18403 5.97895 4.81962 6.15556 4.39325C6.33216 3.96689 6.37837 3.49774 6.28834 3.04512C6.1983 2.59249 5.97608 2.17673 5.64975 1.85041C5.32343 1.52409 4.90767 1.30186 4.45505 1.21183C4.00243 1.1218 3.53327 1.168 3.10691 1.34461C2.68055 1.52121 2.31613 1.82028 2.05974 2.204C1.80335 2.58771 1.6665 3.03884 1.6665 3.50033C1.6665 4.11917 1.91234 4.71266 2.34992 5.15024C2.78751 5.58783 3.381 5.83366 3.99984 5.83366ZM3.99984 2.33366C4.23058 2.33366 4.45615 2.40208 4.648 2.53028C4.83986 2.65847 4.98939 2.84068 5.0777 3.05386C5.166 3.26704 5.1891 3.50162 5.14409 3.72793C5.09907 3.95424 4.98796 4.16212 4.8248 4.32528C4.66163 4.48845 4.45375 4.59956 4.22744 4.64458C4.00113 4.68959 3.76655 4.66649 3.55337 4.57819C3.34019 4.48988 3.15798 4.34035 3.02979 4.14849C2.90159 3.95663 2.83317 3.73107 2.83317 3.50033C2.83317 3.19091 2.95609 2.89416 3.17488 2.67537C3.39367 2.45658 3.69042 2.33366 3.99984 2.33366Z" fill="#460BF9"/>
        <path d="M10.9998 8.16675C10.5383 8.16675 10.0872 8.3036 9.70351 8.55999C9.31979 8.81638 9.02072 9.18079 8.84412 9.60715C8.66751 10.0335 8.62131 10.5027 8.71134 10.9553C8.80137 11.4079 9.0236 11.8237 9.34992 12.15C9.67625 12.4763 10.092 12.6985 10.5446 12.7886C10.9973 12.8786 11.4664 12.8324 11.8928 12.6558C12.3191 12.4792 12.6835 12.1801 12.9399 11.7964C13.1963 11.4127 13.3332 10.9616 13.3332 10.5001C13.3332 9.88124 13.0873 9.28775 12.6498 8.85017C12.2122 8.41258 11.6187 8.16675 10.9998 8.16675ZM10.9998 11.6667C10.7691 11.6667 10.5435 11.5983 10.3517 11.4701C10.1598 11.3419 10.0103 11.1597 9.92198 10.9465C9.83368 10.7334 9.81057 10.4988 9.85559 10.2725C9.90061 10.0462 10.0117 9.83829 10.1749 9.67512C10.338 9.51196 10.5459 9.40085 10.7722 9.35583C10.9985 9.31082 11.2331 9.33392 11.4463 9.42222C11.6595 9.51052 11.8417 9.66006 11.9699 9.85192C12.0981 10.0438 12.1665 10.2693 12.1665 10.5001C12.1665 10.8095 12.0436 11.1062 11.8248 11.325C11.606 11.5438 11.3093 11.6667 10.9998 11.6667Z" fill="#460BF9"/>
    </g>
    <defs>
        <clipPath id="clip0_91_984">
            <rect width="14" height="14" fill="white" transform="translate(0.5)"/>
        </clipPath>
    </defs>
</svg>
