<svg width="15" height="14" viewBox="0 0 15 14" fill="none" xmlns="http://www.w3.org/2000/svg">
    <path d="M6.73915 1.34164C6.97864 0.604593 8.02136 0.604592 8.26085 1.34164L9.34101 4.66606C9.44811 4.99568 9.75528 5.21885 10.1019 5.21885H13.5974C14.3723 5.21885 14.6946 6.21054 14.0676 6.66606L11.2397 8.72066C10.9593 8.92438 10.842 9.28547 10.9491 9.61509L12.0292 12.9395C12.2687 13.6766 11.4251 14.2895 10.7981 13.8339L7.97023 11.7793C7.68984 11.5756 7.31016 11.5756 7.02977 11.7793L4.20185 13.8339C3.57488 14.2895 2.7313 13.6766 2.97078 12.9395L4.05095 9.61509C4.15805 9.28547 4.04072 8.92438 3.76033 8.72066L0.932411 6.66606C0.30544 6.21054 0.62766 5.21885 1.40264 5.21885H4.89814C5.24472 5.21885 5.55189 4.99568 5.65899 4.66606L6.73915 1.34164Z" fill="#B3B8C4"/>
</svg>
