<svg width="10" height="11" viewBox="0 0 10 11" fill="none" xmlns="http://www.w3.org/2000/svg">
    <g clip-path="url(#clip0_192_24050)">
        <path d="M8.75 1.33333H7.5V0.5H6.66667V1.33333H3.33333V0.5H2.5V1.33333H1.25C0.918479 1.33333 0.600537 1.46503 0.366116 1.69945C0.131696 1.93387 0 2.25181 0 2.58333L0 10.5H10V2.58333C10 2.25181 9.8683 1.93387 9.63388 1.69945C9.39946 1.46503 9.08152 1.33333 8.75 1.33333ZM0.833333 2.58333C0.833333 2.47283 0.877232 2.36685 0.955372 2.28871C1.03351 2.21057 1.13949 2.16667 1.25 2.16667H8.75C8.86051 2.16667 8.96649 2.21057 9.04463 2.28871C9.12277 2.36685 9.16667 2.47283 9.16667 2.58333V3.83333H0.833333V2.58333ZM0.833333 9.66667V4.66667H9.16667V9.66667H0.833333Z" fill="#460BF9"/>
        <path d="M7.08334 5.91675H6.25V6.75009H7.08334V5.91675Z" fill="#460BF9"/>
        <path d="M5.41732 5.91675H4.58398V6.75009H5.41732V5.91675Z" fill="#460BF9"/>
        <path d="M3.74935 5.91675H2.91602V6.75009H3.74935V5.91675Z" fill="#460BF9"/>
        <path d="M7.08334 7.58337H6.25V8.41671H7.08334V7.58337Z" fill="#460BF9"/>
        <path d="M5.41732 7.58337H4.58398V8.41671H5.41732V7.58337Z" fill="#460BF9"/>
        <path d="M3.74935 7.58337H2.91602V8.41671H3.74935V7.58337Z" fill="#460BF9"/>
    </g>
    <defs>
        <clipPath id="clip0_192_24050">
            <rect width="10" height="10" fill="white" transform="translate(0 0.5)"/>
        </clipPath>
    </defs>
</svg>
