<svg width="14" height="14" viewBox="0 0 14 14" fill="none" xmlns="http://www.w3.org/2000/svg">
<path d="M12.25 0H1.75C1.28587 0 0.840752 0.184374 0.512563 0.512563C0.184374 0.840752 0 1.28587 0 1.75L0 11.6667H4.025L6.24633 13.5438C6.45691 13.7218 6.72371 13.8194 6.99942 13.8194C7.27512 13.8194 7.54192 13.7218 7.7525 13.5438L9.975 11.6667H14V1.75C14 1.28587 13.8156 0.840752 13.4874 0.512563C13.1592 0.184374 12.7141 0 12.25 0V0ZM12.8333 10.5H9.54683L7 12.6525L4.45317 10.5H1.16667V1.75C1.16667 1.59529 1.22812 1.44692 1.33752 1.33752C1.44692 1.22812 1.59529 1.16667 1.75 1.16667H12.25C12.4047 1.16667 12.5531 1.22812 12.6625 1.33752C12.7719 1.44692 12.8333 1.59529 12.8333 1.75V10.5Z" fill="#460BF9"/>
<path d="M7 2.91675H3.5V4.08341H7V2.91675Z" fill="#460BF9"/>
<path d="M10.5 5.25H3.5V6.41666H10.5V5.25Z" fill="#460BF9"/>
<path d="M10.5 7.58325H3.5V8.74992H10.5V7.58325Z" fill="#460BF9"/>
</svg>
