<svg xmlns="http://www.w3.org/2000/svg" width="24" height="25" viewBox="0 0 24 25" fill="none">
    <g opacity="0.79">
        <path fill-rule="evenodd" clip-rule="evenodd" d="M14.4695 7.5C15.14 7.5 15.785 7.765 16.2595 8.2405C16.7345 8.715 17 9.355 17 10.025V13.975C17 15.37 15.865 16.5 14.4695 16.5H9.53C8.1345 16.5 7 15.37 7 13.975V10.025C7 8.63 8.1295 7.5 9.53 7.5H14.4695ZM15.265 10.77L15.305 10.73C15.4245 10.585 15.4245 10.375 15.2995 10.23C15.23 10.1555 15.1345 10.11 15.035 10.1C14.93 10.0945 14.83 10.13 14.7545 10.2L12.5 12C12.21 12.2405 11.7945 12.2405 11.5 12L9.25 10.2C9.0945 10.085 8.8795 10.1 8.75 10.235C8.615 10.37 8.6 10.585 8.7145 10.735L8.78 10.8L11.055 12.575C11.335 12.795 11.6745 12.915 12.03 12.915C12.3845 12.915 12.73 12.795 13.0095 12.575L15.265 10.77Z" fill="#151515"/>
    </g>
</svg>