<svg width="6" height="6" viewBox="0 0 6 6" fill="none" xmlns="http://www.w3.org/2000/svg">
    <path d="M3 0.542169C3.79518 0.542169 3.90361 0.542169 4.22892 0.542169C4.51807 0.542169 4.66265 0.614458 4.77108 0.650603C4.91566 0.722892 5.0241 0.759036 5.13253 0.86747C5.24096 0.975904 5.31325 1.08434 5.3494 1.22892C5.38554 1.33735 5.42169 1.48193 5.45783 1.77108C5.45783 2.09639 5.45783 2.16867 5.45783 3C5.45783 3.83133 5.45783 3.90361 5.45783 4.22892C5.45783 4.51807 5.38554 4.66265 5.3494 4.77108C5.27711 4.91566 5.24096 5.0241 5.13253 5.13253C5.0241 5.24096 4.91566 5.31325 4.77108 5.3494C4.66265 5.38554 4.51807 5.42169 4.22892 5.45783C3.90361 5.45783 3.83133 5.45783 3 5.45783C2.16867 5.45783 2.09639 5.45783 1.77108 5.45783C1.48193 5.45783 1.33735 5.38554 1.22892 5.3494C1.08434 5.27711 0.975904 5.24096 0.86747 5.13253C0.759036 5.0241 0.686747 4.91566 0.650603 4.77108C0.614458 4.66265 0.578313 4.51807 0.542169 4.22892C0.542169 3.90361 0.542169 3.83133 0.542169 3C0.542169 2.16867 0.542169 2.09639 0.542169 1.77108C0.542169 1.48193 0.614458 1.33735 0.650603 1.22892C0.722892 1.08434 0.759036 0.975904 0.86747 0.86747C0.975904 0.759036 1.08434 0.686747 1.22892 0.650603C1.33735 0.614458 1.48193 0.578313 1.77108 0.542169C2.09639 0.542169 2.20482 0.542169 3 0.542169ZM3 0C2.16867 0 2.09639 0 1.77108 0C1.44578 0 1.22892 0.0722894 1.04819 0.144579C0.86747 0.216868 0.686747 0.325301 0.506024 0.506024C0.325301 0.686747 0.253012 0.831326 0.144579 1.04819C0.0722894 1.22892 0.0361446 1.44578 0 1.77108C0 2.09639 0 2.20482 0 3C0 3.83133 0 3.90361 0 4.22892C0 4.55422 0.0722894 4.77108 0.144579 4.95181C0.216868 5.13253 0.325301 5.31325 0.506024 5.49398C0.686747 5.6747 0.831326 5.74699 1.04819 5.85542C1.22892 5.92771 1.44578 5.96386 1.77108 6C2.09639 6 2.20482 6 3 6C3.79518 6 3.90361 6 4.22892 6C4.55422 6 4.77108 5.92771 4.95181 5.85542C5.13253 5.78313 5.31325 5.6747 5.49398 5.49398C5.6747 5.31325 5.74699 5.16868 5.85542 4.95181C5.92771 4.77108 5.96386 4.55422 6 4.22892C6 3.90361 6 3.79518 6 3C6 2.20482 6 2.09639 6 1.77108C6 1.44578 5.92771 1.22892 5.85542 1.04819C5.78313 0.86747 5.6747 0.686747 5.49398 0.506024C5.31325 0.325301 5.16868 0.253012 4.95181 0.144579C4.77108 0.0722894 4.55422 0.0361446 4.22892 0C3.90361 0 3.83133 0 3 0Z" fill="#151515" fill-opacity="0.76"/>
    <path d="M3 1.44578C2.13253 1.44578 1.44578 2.13253 1.44578 3C1.44578 3.86747 2.13253 4.55422 3 4.55422C3.86747 4.55422 4.55422 3.86747 4.55422 3C4.55422 2.13253 3.86747 1.44578 3 1.44578ZM3 4.01205C2.45783 4.01205 1.98795 3.57831 1.98795 3C1.98795 2.45783 2.42169 1.98795 3 1.98795C3.54217 1.98795 4.01205 2.42169 4.01205 3C4.01205 3.54217 3.54217 4.01205 3 4.01205Z" fill="#151515" fill-opacity="0.76"/>
    <path d="M4.59036 1.77108C4.78998 1.77108 4.95181 1.60926 4.95181 1.40964C4.95181 1.21002 4.78998 1.04819 4.59036 1.04819C4.39074 1.04819 4.22892 1.21002 4.22892 1.40964C4.22892 1.60926 4.39074 1.77108 4.59036 1.77108Z" fill="#151515" fill-opacity="0.76"/>
</svg>
