<svg width="201" height="25" viewBox="0 0 201 25" fill="none" xmlns="http://www.w3.org/2000/svg">
    <path d="M19.032 18.656C18.6267 19.8293 18.0187 20.8427 17.208 21.696C16.4187 22.5493 15.4587 23.2 14.328 23.648C13.2187 24.096 11.9707 24.32 10.584 24.32C8.664 24.32 6.97867 23.8827 5.528 23.008C4.09867 22.112 2.97867 20.8533 2.168 19.232C1.37867 17.6107 0.984 15.68 0.984 13.44C0.984 11.2 1.37867 9.26933 2.168 7.648C2.95733 6.02667 4.06667 4.77867 5.496 3.904C6.94667 3.008 8.632 2.56 10.552 2.56C11.9813 2.56 13.2293 2.76267 14.296 3.168C15.384 3.552 16.3013 4.13867 17.048 4.928C17.7947 5.696 18.36 6.64533 18.744 7.776L17.176 8.512C16.6853 7.04 15.9067 5.93067 14.84 5.184C13.7733 4.416 12.376 4.032 10.648 4.032C9.06933 4.032 7.672 4.416 6.456 5.184C5.26133 5.93067 4.33333 7.008 3.672 8.416C3.01067 9.80267 2.68 11.4773 2.68 13.44C2.68 15.3813 3 17.056 3.64 18.464C4.30133 19.872 5.22933 20.96 6.424 21.728C7.61867 22.4747 9.00533 22.848 10.584 22.848C12.2907 22.848 13.7413 22.4427 14.936 21.632C16.1307 20.8 16.9627 19.6053 17.432 18.048L19.032 18.656ZM24.7263 0.639999V20.224C24.7263 21.2053 24.8969 21.8987 25.2383 22.304C25.5796 22.7093 26.1129 22.912 26.8383 22.912C27.2863 22.912 27.6383 22.88 27.8943 22.816C28.1716 22.752 28.4916 22.6453 28.8542 22.496L28.6302 23.904C28.3529 24.032 28.0329 24.128 27.6703 24.192C27.3289 24.2773 26.9449 24.32 26.5183 24.32C25.3876 24.32 24.5343 24 23.9583 23.36C23.4036 22.6987 23.1263 21.6747 23.1263 20.288V0.639999H24.7263ZM38.4385 7.68C39.9318 7.68 41.2438 8.01067 42.3745 8.672C43.5265 9.33333 44.4225 10.2933 45.0625 11.552C45.7238 12.7893 46.0545 14.272 46.0545 16C46.0545 17.728 45.7238 19.2213 45.0625 20.48C44.4225 21.7173 43.5265 22.6667 42.3745 23.328C41.2438 23.9893 39.9318 24.32 38.4385 24.32C36.9452 24.32 35.6225 23.9893 34.4705 23.328C33.3398 22.6667 32.4438 21.7173 31.7825 20.48C31.1425 19.2213 30.8225 17.728 30.8225 16C30.8225 14.272 31.1425 12.7893 31.7825 11.552C32.4438 10.2933 33.3398 9.33333 34.4705 8.672C35.6225 8.01067 36.9452 7.68 38.4385 7.68ZM38.4385 9.056C37.2225 9.056 36.1665 9.33333 35.2705 9.888C34.3745 10.4427 33.6705 11.2427 33.1585 12.288C32.6678 13.312 32.4225 14.5493 32.4225 16C32.4225 17.4293 32.6678 18.6667 33.1585 19.712C33.6705 20.7573 34.3745 21.5573 35.2705 22.112C36.1665 22.6667 37.2225 22.944 38.4385 22.944C39.6545 22.944 40.7105 22.6667 41.6065 22.112C42.5025 21.5573 43.1958 20.7573 43.6865 19.712C44.1985 18.6667 44.4545 17.4293 44.4545 16C44.4545 14.5493 44.1985 13.312 43.6865 12.288C43.1958 11.2427 42.5025 10.4427 41.6065 9.888C40.7105 9.33333 39.6545 9.056 38.4385 9.056ZM56.2613 24.32C55.1519 24.32 54.1599 24.1173 53.2853 23.712C52.4106 23.3067 51.7173 22.6773 51.2053 21.824C50.7146 20.9493 50.4693 19.8613 50.4693 18.56V8H52.0693V18.176C52.0693 19.84 52.4639 21.0453 53.2533 21.792C54.0639 22.5387 55.1946 22.912 56.6453 22.912C57.4986 22.912 58.2666 22.7627 58.9493 22.464C59.6533 22.1653 60.2506 21.7493 60.7413 21.216C61.2319 20.6827 61.6053 20.0747 61.8613 19.392C62.1386 18.688 62.2773 17.952 62.2773 17.184V8H63.8773V24H62.4373L62.3733 20.704C61.9039 21.8347 61.1359 22.72 60.0693 23.36C59.0026 24 57.7333 24.32 56.2613 24.32ZM75.8068 24.32C74.4201 24.32 73.1721 23.9893 72.0628 23.328C70.9534 22.6667 70.0788 21.7173 69.4388 20.48C68.8201 19.2213 68.5108 17.728 68.5108 16C68.5108 14.2293 68.8414 12.7253 69.5028 11.488C70.1641 10.2507 71.0601 9.312 72.1908 8.672C73.3214 8.01067 74.5801 7.68 75.9668 7.68C77.4388 7.68 78.6974 8.07467 79.7428 8.864C80.8094 9.65333 81.5241 10.7413 81.8868 12.128L81.6948 12.288V0.639999H83.2948V24H81.8548L81.7588 19.552L81.9508 19.488C81.7588 20.512 81.3641 21.3867 80.7668 22.112C80.1908 22.8373 79.4654 23.392 78.5908 23.776C77.7374 24.1387 76.8094 24.32 75.8068 24.32ZM75.9988 22.912C77.1294 22.912 78.1214 22.6347 78.9748 22.08C79.8281 21.504 80.4894 20.6827 80.9588 19.616C81.4494 18.5493 81.6948 17.3013 81.6948 15.872C81.6948 14.464 81.4494 13.2587 80.9588 12.256C80.4894 11.232 79.8281 10.4533 78.9748 9.92C78.1428 9.36533 77.1721 9.088 76.0628 9.088C74.2281 9.088 72.7774 9.70667 71.7108 10.944C70.6441 12.1813 70.1108 13.8667 70.1108 16C70.1108 18.1333 70.6334 19.8187 71.6788 21.056C72.7454 22.2933 74.1854 22.912 75.9988 22.912Z" fill="#151515"/>
    <path d="M121.916 2.88V24H117.948V12.992L118.14 6.816H118.076L112.22 24H108.604L102.78 6.816H102.716L102.94 12.992V24H98.9395V2.88H105.34L109.148 14.4L110.492 19.168H110.556L111.932 14.432L115.708 2.88H121.916ZM129.168 5.696C128.251 5.696 127.568 5.504 127.12 5.12C126.672 4.71467 126.448 4.128 126.448 3.36C126.448 2.57067 126.672 1.984 127.12 1.6C127.568 1.19467 128.251 0.991999 129.168 0.991999C130.086 0.991999 130.768 1.19467 131.216 1.6C131.664 1.984 131.888 2.57067 131.888 3.36C131.888 4.128 131.664 4.71467 131.216 5.12C130.768 5.504 130.086 5.696 129.168 5.696ZM131.344 8V24H126.96V8H131.344ZM135.992 24V8H139.928L140.184 12.8L139.64 12.288C139.896 11.2427 140.301 10.3893 140.856 9.728C141.41 9.04533 142.082 8.53333 142.872 8.192C143.682 7.85067 144.568 7.68 145.528 7.68C146.637 7.68 147.618 7.89333 148.472 8.32C149.346 8.74667 150.029 9.39733 150.52 10.272C151.032 11.1253 151.288 12.2027 151.288 13.504V24H146.904V14.752C146.904 13.3867 146.637 12.448 146.104 11.936C145.57 11.4027 144.877 11.136 144.024 11.136C143.426 11.136 142.84 11.2853 142.264 11.584C141.709 11.8613 141.25 12.32 140.888 12.96C140.546 13.6 140.376 14.4533 140.376 15.52V24H135.992ZM163.228 24.32C161.543 24.32 160.071 23.9893 158.812 23.328C157.575 22.6667 156.615 21.7173 155.932 20.48C155.249 19.2427 154.908 17.7493 154.908 16C154.908 14.2507 155.249 12.7573 155.932 11.52C156.615 10.2827 157.564 9.33333 158.78 8.672C160.017 8.01067 161.425 7.68 163.004 7.68C164.625 7.68 166.001 8.01067 167.132 8.672C168.263 9.312 169.127 10.1973 169.724 11.328C170.321 12.4373 170.62 13.7067 170.62 15.136C170.62 15.5627 170.609 15.968 170.588 16.352C170.567 16.736 170.535 17.0773 170.492 17.376H157.724V14.336H168.572L166.46 15.104C166.46 13.76 166.151 12.7253 165.532 12C164.935 11.2747 164.081 10.912 162.972 10.912C162.161 10.912 161.457 11.104 160.86 11.488C160.284 11.872 159.847 12.448 159.548 13.216C159.249 13.9627 159.1 14.912 159.1 16.064C159.1 17.1947 159.26 18.1333 159.58 18.88C159.921 19.6053 160.391 20.1493 160.988 20.512C161.607 20.8747 162.343 21.056 163.196 21.056C164.135 21.056 164.892 20.8747 165.468 20.512C166.044 20.1493 166.492 19.648 166.812 19.008L170.3 20.352C169.959 21.184 169.436 21.8987 168.732 22.496C168.049 23.0933 167.228 23.552 166.268 23.872C165.329 24.1707 164.316 24.32 163.228 24.32ZM174.335 24V8H178.143L178.431 11.136C178.858 10.0267 179.477 9.17333 180.287 8.576C181.119 7.97867 182.154 7.68 183.391 7.68C183.754 7.68 184.085 7.712 184.383 7.776C184.682 7.84 184.927 7.92533 185.119 8.032L184.607 11.712C184.394 11.6267 184.127 11.5627 183.807 11.52C183.509 11.4773 183.114 11.456 182.623 11.456C181.983 11.456 181.365 11.616 180.767 11.936C180.17 12.2347 179.679 12.704 179.295 13.344C178.911 13.9627 178.719 14.752 178.719 15.712V24H174.335ZM193.829 24.32C192.208 24.32 190.725 24.032 189.381 23.456C188.058 22.88 186.981 22.0693 186.149 21.024L188.677 18.464C189.189 19.232 189.872 19.8613 190.725 20.352C191.578 20.8427 192.592 21.088 193.765 21.088C194.597 21.088 195.258 20.9707 195.749 20.736C196.261 20.48 196.517 20.0853 196.517 19.552C196.517 19.2107 196.4 18.9227 196.165 18.688C195.93 18.432 195.461 18.2293 194.757 18.08L191.941 17.504C190.085 17.12 188.762 16.544 187.973 15.776C187.205 14.9867 186.821 13.9733 186.821 12.736C186.821 11.8613 187.077 11.04 187.589 10.272C188.122 9.504 188.912 8.88533 189.957 8.416C191.002 7.92533 192.304 7.68 193.861 7.68C195.461 7.68 196.848 7.936 198.021 8.448C199.216 8.93867 200.154 9.67467 200.837 10.656L198.213 13.216C197.744 12.4693 197.125 11.904 196.357 11.52C195.61 11.1147 194.821 10.912 193.989 10.912C193.392 10.912 192.88 10.976 192.453 11.104C192.026 11.232 191.706 11.4133 191.493 11.648C191.28 11.8613 191.173 12.1387 191.173 12.48C191.173 12.8213 191.322 13.12 191.621 13.376C191.92 13.6107 192.464 13.8133 193.253 13.984L196.517 14.656C198.096 14.976 199.226 15.52 199.909 16.288C200.592 17.0347 200.933 17.9413 200.933 19.008C200.933 20.032 200.656 20.9493 200.101 21.76C199.568 22.5493 198.768 23.1787 197.701 23.648C196.656 24.096 195.365 24.32 193.829 24.32Z" fill="#460BF9"/>
</svg>
