<svg width="151" height="19" viewBox="0 0 151 19" fill="none" xmlns="http://www.w3.org/2000/svg">
    <path d="M14.024 13.992C13.72 14.872 13.264 15.632 12.656 16.272C12.064 16.912 11.344 17.4 10.496 17.736C9.664 18.072 8.728 18.24 7.688 18.24C6.248 18.24 4.984 17.912 3.896 17.256C2.824 16.584 1.984 15.64 1.376 14.424C0.784 13.208 0.488 11.76 0.488 10.08C0.488 8.4 0.784 6.952 1.376 5.736C1.968 4.52 2.8 3.584 3.872 2.928C4.96 2.256 6.224 1.92 7.664 1.92C8.736 1.92 9.672 2.072 10.472 2.376C11.288 2.664 11.976 3.104 12.536 3.696C13.096 4.272 13.52 4.984 13.808 5.832L12.632 6.384C12.264 5.28 11.68 4.448 10.88 3.888C10.08 3.312 9.032 3.024 7.736 3.024C6.552 3.024 5.504 3.312 4.592 3.888C3.696 4.448 3 5.256 2.504 6.312C2.008 7.352 1.76 8.608 1.76 10.08C1.76 11.536 2 12.792 2.48 13.848C2.976 14.904 3.672 15.72 4.568 16.296C5.464 16.856 6.504 17.136 7.688 17.136C8.968 17.136 10.056 16.832 10.952 16.224C11.848 15.6 12.472 14.704 12.824 13.536L14.024 13.992ZM18.2947 0.48V15.168C18.2947 15.904 18.4227 16.424 18.6787 16.728C18.9347 17.032 19.3347 17.184 19.8787 17.184C20.2147 17.184 20.4787 17.16 20.6707 17.112C20.8787 17.064 21.1187 16.984 21.3907 16.872L21.2227 17.928C21.0147 18.024 20.7747 18.096 20.5027 18.144C20.2467 18.208 19.9587 18.24 19.6387 18.24C18.7907 18.24 18.1507 18 17.7187 17.52C17.3027 17.024 17.0947 16.256 17.0947 15.216V0.48H18.2947ZM28.5789 5.76C29.6989 5.76 30.6829 6.008 31.5309 6.504C32.3949 7 33.0669 7.72 33.5469 8.664C34.0429 9.592 34.2909 10.704 34.2909 12C34.2909 13.296 34.0429 14.416 33.5469 15.36C33.0669 16.288 32.3949 17 31.5309 17.496C30.6829 17.992 29.6989 18.24 28.5789 18.24C27.4589 18.24 26.4669 17.992 25.6029 17.496C24.7549 17 24.0829 16.288 23.5869 15.36C23.1069 14.416 22.8669 13.296 22.8669 12C22.8669 10.704 23.1069 9.592 23.5869 8.664C24.0829 7.72 24.7549 7 25.6029 6.504C26.4669 6.008 27.4589 5.76 28.5789 5.76ZM28.5789 6.792C27.6669 6.792 26.8749 7 26.2029 7.416C25.5309 7.832 25.0029 8.432 24.6189 9.216C24.2509 9.984 24.0669 10.912 24.0669 12C24.0669 13.072 24.2509 14 24.6189 14.784C25.0029 15.568 25.5309 16.168 26.2029 16.584C26.8749 17 27.6669 17.208 28.5789 17.208C29.4909 17.208 30.2829 17 30.9549 16.584C31.6269 16.168 32.1469 15.568 32.5149 14.784C32.8989 14 33.0909 13.072 33.0909 12C33.0909 10.912 32.8989 9.984 32.5149 9.216C32.1469 8.432 31.6269 7.832 30.9549 7.416C30.2829 7 29.4909 6.792 28.5789 6.792ZM41.9459 18.24C41.1139 18.24 40.3699 18.088 39.7139 17.784C39.0579 17.48 38.5379 17.008 38.1539 16.368C37.7859 15.712 37.6019 14.896 37.6019 13.92V6H38.8019V13.632C38.8019 14.88 39.0979 15.784 39.6899 16.344C40.2979 16.904 41.1459 17.184 42.2339 17.184C42.8739 17.184 43.4499 17.072 43.9619 16.848C44.4899 16.624 44.9379 16.312 45.3059 15.912C45.6739 15.512 45.9539 15.056 46.1459 14.544C46.3539 14.016 46.4579 13.464 46.4579 12.888V6H47.6579V18H46.5779L46.5299 15.528C46.1779 16.376 45.6019 17.04 44.8019 17.52C44.0019 18 43.0499 18.24 41.9459 18.24ZM56.6051 18.24C55.5651 18.24 54.6291 17.992 53.7971 17.496C52.9651 17 52.3091 16.288 51.8291 15.36C51.3651 14.416 51.1331 13.296 51.1331 12C51.1331 10.672 51.3811 9.544 51.8771 8.616C52.3731 7.688 53.0451 6.984 53.8931 6.504C54.7411 6.008 55.6851 5.76 56.7251 5.76C57.8291 5.76 58.7731 6.056 59.5571 6.648C60.3571 7.24 60.8931 8.056 61.1651 9.096L61.0211 9.216V0.48H62.2211V18H61.1411L61.0691 14.664L61.2131 14.616C61.0691 15.384 60.7731 16.04 60.3251 16.584C59.8931 17.128 59.3491 17.544 58.6931 17.832C58.0531 18.104 57.3571 18.24 56.6051 18.24ZM56.7491 17.184C57.5971 17.184 58.3411 16.976 58.9811 16.56C59.6211 16.128 60.1171 15.512 60.4691 14.712C60.8371 13.912 61.0211 12.976 61.0211 11.904C61.0211 10.848 60.8371 9.944 60.4691 9.192C60.1171 8.424 59.6211 7.84 58.9811 7.44C58.3571 7.024 57.6291 6.816 56.7971 6.816C55.4211 6.816 54.3331 7.28 53.5331 8.208C52.7331 9.136 52.3331 10.4 52.3331 12C52.3331 13.6 52.7251 14.864 53.5091 15.792C54.3091 16.72 55.3891 17.184 56.7491 17.184ZM91.1866 2.16V18H88.2106V9.744L88.3546 5.112H88.3066L83.9146 18H81.2026L76.8346 5.112H76.7866L76.9546 9.744V18H73.9546V2.16H78.7546L81.6106 10.8L82.6186 14.376H82.6666L83.6986 10.824L86.5306 2.16H91.1866ZM96.6262 4.272C95.9382 4.272 95.4262 4.128 95.0902 3.84C94.7542 3.536 94.5862 3.096 94.5862 2.52C94.5862 1.928 94.7542 1.488 95.0902 1.2C95.4262 0.895999 95.9382 0.743999 96.6262 0.743999C97.3142 0.743999 97.8262 0.895999 98.1622 1.2C98.4982 1.488 98.6662 1.928 98.6662 2.52C98.6662 3.096 98.4982 3.536 98.1622 3.84C97.8262 4.128 97.3142 4.272 96.6262 4.272ZM98.2582 6V18H94.9702V6H98.2582ZM101.744 18V6H104.696L104.888 9.6L104.48 9.216C104.672 8.432 104.976 7.792 105.392 7.296C105.808 6.784 106.312 6.4 106.904 6.144C107.512 5.888 108.176 5.76 108.896 5.76C109.728 5.76 110.464 5.92 111.104 6.24C111.76 6.56 112.272 7.048 112.64 7.704C113.024 8.344 113.216 9.152 113.216 10.128V18H109.928V11.064C109.928 10.04 109.728 9.336 109.328 8.952C108.928 8.552 108.408 8.352 107.768 8.352C107.32 8.352 106.88 8.464 106.448 8.688C106.032 8.896 105.688 9.24 105.416 9.72C105.16 10.2 105.032 10.84 105.032 11.64V18H101.744ZM122.171 18.24C120.907 18.24 119.803 17.992 118.859 17.496C117.931 17 117.211 16.288 116.699 15.36C116.187 14.432 115.931 13.312 115.931 12C115.931 10.688 116.187 9.568 116.699 8.64C117.211 7.712 117.923 7 118.835 6.504C119.763 6.008 120.819 5.76 122.003 5.76C123.219 5.76 124.251 6.008 125.099 6.504C125.947 6.984 126.595 7.648 127.043 8.496C127.491 9.328 127.715 10.28 127.715 11.352C127.715 11.672 127.707 11.976 127.691 12.264C127.675 12.552 127.651 12.808 127.619 13.032H118.043V10.752H126.179L124.595 11.328C124.595 10.32 124.363 9.544 123.899 9C123.451 8.456 122.811 8.184 121.979 8.184C121.371 8.184 120.843 8.328 120.395 8.616C119.963 8.904 119.635 9.336 119.411 9.912C119.187 10.472 119.075 11.184 119.075 12.048C119.075 12.896 119.195 13.6 119.435 14.16C119.691 14.704 120.043 15.112 120.491 15.384C120.955 15.656 121.507 15.792 122.147 15.792C122.851 15.792 123.419 15.656 123.851 15.384C124.283 15.112 124.619 14.736 124.859 14.256L127.475 15.264C127.219 15.888 126.827 16.424 126.299 16.872C125.787 17.32 125.171 17.664 124.451 17.904C123.747 18.128 122.987 18.24 122.171 18.24ZM130.501 18V6H133.357L133.573 8.352C133.893 7.52 134.357 6.88 134.965 6.432C135.589 5.984 136.365 5.76 137.293 5.76C137.565 5.76 137.813 5.784 138.037 5.832C138.261 5.88 138.445 5.944 138.589 6.024L138.205 8.784C138.045 8.72 137.845 8.672 137.605 8.64C137.381 8.608 137.085 8.592 136.717 8.592C136.237 8.592 135.773 8.712 135.325 8.952C134.877 9.176 134.509 9.528 134.221 10.008C133.933 10.472 133.789 11.064 133.789 11.784V18H130.501ZM145.122 18.24C143.906 18.24 142.794 18.024 141.786 17.592C140.794 17.16 139.986 16.552 139.362 15.768L141.258 13.848C141.642 14.424 142.154 14.896 142.794 15.264C143.434 15.632 144.194 15.816 145.074 15.816C145.698 15.816 146.194 15.728 146.562 15.552C146.946 15.36 147.138 15.064 147.138 14.664C147.138 14.408 147.05 14.192 146.874 14.016C146.698 13.824 146.346 13.672 145.818 13.56L143.706 13.128C142.314 12.84 141.322 12.408 140.73 11.832C140.154 11.24 139.866 10.48 139.866 9.552C139.866 8.896 140.058 8.28 140.442 7.704C140.842 7.128 141.434 6.664 142.218 6.312C143.002 5.944 143.978 5.76 145.146 5.76C146.346 5.76 147.386 5.952 148.266 6.336C149.162 6.704 149.866 7.256 150.378 7.992L148.41 9.912C148.058 9.352 147.594 8.928 147.018 8.64C146.458 8.336 145.866 8.184 145.242 8.184C144.794 8.184 144.41 8.232 144.09 8.328C143.77 8.424 143.53 8.56 143.37 8.736C143.21 8.896 143.13 9.104 143.13 9.36C143.13 9.616 143.242 9.84 143.466 10.032C143.69 10.208 144.098 10.36 144.69 10.488L147.138 10.992C148.322 11.232 149.17 11.64 149.682 12.216C150.194 12.776 150.45 13.456 150.45 14.256C150.45 15.024 150.242 15.712 149.826 16.32C149.426 16.912 148.826 17.384 148.026 17.736C147.242 18.072 146.274 18.24 145.122 18.24Z" fill="white"/>
</svg>
