<svg width="10" height="11" viewBox="0 0 10 11" fill="none" xmlns="http://www.w3.org/2000/svg">
    <g clip-path="url(#clip0_192_24061)">
        <path d="M8.75 0.5H1.25C0.918479 0.5 0.600537 0.631696 0.366116 0.866116C0.131696 1.10054 0 1.41848 0 1.75L0 8.83333H2.875L4.46167 10.1742C4.61208 10.3013 4.80265 10.371 4.99958 10.371C5.19652 10.371 5.38709 10.3013 5.5375 10.1742L7.125 8.83333H10V1.75C10 1.41848 9.8683 1.10054 9.63388 0.866116C9.39946 0.631696 9.08152 0.5 8.75 0.5V0.5ZM9.16667 8H6.81917L5 9.5375L3.18083 8H0.833333V1.75C0.833333 1.63949 0.877232 1.53351 0.955372 1.45537C1.03351 1.37723 1.13949 1.33333 1.25 1.33333H8.75C8.86051 1.33333 8.96649 1.37723 9.04463 1.45537C9.12277 1.53351 9.16667 1.63949 9.16667 1.75V8Z" fill="#fff"/>
        <path d="M5 2.58337H2.5V3.41671H5V2.58337Z" fill="#fff"/>
        <path d="M7.5 4.25H2.5V5.08333H7.5V4.25Z" fill="#fff"/>
        <path d="M7.5 5.91663H2.5V6.74996H7.5V5.91663Z" fill="#fff"/>
    </g>
    <defs>
        <clipPath id="clip0_192_24061">
            <rect width="10" height="10" fill="white" transform="translate(0 0.5)"/>
        </clipPath>
    </defs>
</svg>
