<svg width="16" height="16" viewBox="0 0 16 16" fill="none" xmlns="http://www.w3.org/2000/svg">
    <g clip-path="url(#clip0_250_16619)">
        <path d="M4.66667 4.00032H15.3333C15.5101 4.00032 15.6797 3.93009 15.8047 3.80506C15.9298 3.68004 16 3.51047 16 3.33366C16 3.15685 15.9298 2.98728 15.8047 2.86225C15.6797 2.73723 15.5101 2.66699 15.3333 2.66699H4.66667C4.48986 2.66699 4.32029 2.73723 4.19526 2.86225C4.07024 2.98728 4 3.15685 4 3.33366C4 3.51047 4.07024 3.68004 4.19526 3.80506C4.32029 3.93009 4.48986 4.00032 4.66667 4.00032Z" fill="#460BF9"/>
        <path d="M15.3333 7.33301H4.66667C4.48986 7.33301 4.32029 7.40325 4.19526 7.52827C4.07024 7.6533 4 7.82287 4 7.99968C4 8.17649 4.07024 8.34606 4.19526 8.47109C4.32029 8.59611 4.48986 8.66635 4.66667 8.66635H15.3333C15.5101 8.66635 15.6797 8.59611 15.8047 8.47109C15.9298 8.34606 16 8.17649 16 7.99968C16 7.82287 15.9298 7.6533 15.8047 7.52827C15.6797 7.40325 15.5101 7.33301 15.3333 7.33301Z" fill="#460BF9"/>
        <path d="M15.3333 12H4.66667C4.48986 12 4.32029 12.0702 4.19526 12.1953C4.07024 12.3203 4 12.4899 4 12.6667C4 12.8435 4.07024 13.0131 4.19526 13.1381C4.32029 13.2631 4.48986 13.3333 4.66667 13.3333H15.3333C15.5101 13.3333 15.6797 13.2631 15.8047 13.1381C15.9298 13.0131 16 12.8435 16 12.6667C16 12.4899 15.9298 12.3203 15.8047 12.1953C15.6797 12.0702 15.5101 12 15.3333 12Z" fill="#460BF9"/>
        <path d="M1.33333 4.66666C2.06971 4.66666 2.66667 4.06971 2.66667 3.33333C2.66667 2.59695 2.06971 2 1.33333 2C0.596954 2 0 2.59695 0 3.33333C0 4.06971 0.596954 4.66666 1.33333 4.66666Z" fill="#460BF9"/>
        <path d="M1.33333 9.33365C2.06971 9.33365 2.66667 8.7367 2.66667 8.00032C2.66667 7.26394 2.06971 6.66699 1.33333 6.66699C0.596954 6.66699 0 7.26394 0 8.00032C0 8.7367 0.596954 9.33365 1.33333 9.33365Z" fill="#460BF9"/>
        <path d="M1.33333 13.9997C2.06971 13.9997 2.66667 13.4027 2.66667 12.6663C2.66667 11.93 2.06971 11.333 1.33333 11.333C0.596954 11.333 0 11.93 0 12.6663C0 13.4027 0.596954 13.9997 1.33333 13.9997Z" fill="#460BF9"/>
    </g>
    <defs>
        <clipPath id="clip0_250_16619">
            <rect width="16" height="16" fill="white"/>
        </clipPath>
    </defs>
</svg>
