<svg xmlns="http://www.w3.org/2000/svg" width="24" height="25" viewBox="0 0 24 25" fill="none">
    <path d="M17 9.46939C16.6429 9.62245 16.2347 9.72449 15.8265 9.77551C16.2347 9.52041 16.5918 9.11225 16.7449 8.65306C16.3367 8.90817 15.9286 9.06123 15.4184 9.16327C15.0612 8.7551 14.5 8.5 13.9388 8.5C12.8163 8.5 11.898 9.41837 11.898 10.5408C11.898 10.6939 11.898 10.8469 11.949 11C10.2653 10.898 8.73469 10.0816 7.71428 8.85714C7.56122 9.16326 7.45918 9.52041 7.45918 9.87755C7.45918 10.5918 7.81633 11.2041 8.37755 11.5612C8.02041 11.5612 7.71428 11.4592 7.45918 11.3061C7.45918 12.2755 8.17347 13.1429 9.09183 13.2959C8.93877 13.3469 8.73469 13.3469 8.53061 13.3469C8.37755 13.3469 8.27551 13.3469 8.12245 13.2959C8.37755 14.1122 9.14286 14.7245 10.0612 14.7245C9.34694 15.2857 8.47959 15.5918 7.5102 15.5918C7.35714 15.5918 7.20408 15.5918 7 15.5408C7.91837 16.102 8.9898 16.4592 10.1633 16.4592C13.9388 16.4592 15.9796 13.3469 15.9796 10.6429V10.3878C16.3878 10.2347 16.7449 9.87755 17 9.46939Z" fill="#151515" fill-opacity="0.79"/>
</svg>